<svg fill="currentColor" version="1.1" id="Capa_1" xmlns="http://www.w3.org/2000/svg" xmlns:xlink="http://www.w3.org/1999/xlink" viewBox="0 0 44.659 44.659" xml:space="preserve"><g id="SVGRepo_bgCarrier" stroke-width="0"></g><g id="SVGRepo_tracerCarrier" stroke-linecap="round" stroke-linejoin="round"></g><g id="SVGRepo_iconCarrier"> <g> <g> <path d="M39.702,16.393C39.171,7.2,31.532,0,22.309,0c-0.326,0-0.656,0.009-0.986,0.027C11.747,0.58,4.405,8.823,4.958,18.401 c0.373,6.439,4.24,12.113,10.092,14.803l0.137,0.063l0.102,0.11c3.359,3.658,6.893,8.793,7.285,9.366l1.295,1.915l1.108-2.001 c0.916-1.633,3.898-6.922,5.925-10.025l0.096-0.146l0.151-0.091C36.716,29.119,40.073,22.837,39.702,16.393z M29.339,30.191 l-0.301,0.168l-0.191,0.285c-1.508,2.254-3.561,5.783-4.649,7.686l-0.574,1.002l-0.682-0.934 c-1.484-2.028-3.713-4.938-5.898-7.266l-0.201-0.214l-0.268-0.114c-5.111-2.199-8.484-7.014-8.807-12.564 C7.304,10.21,13.458,3.3,21.488,2.835c8.065-0.472,14.942,5.729,15.403,13.719C37.214,22.145,34.249,27.498,29.339,30.191z"></path> <path d="M30.761,14.216l-0.233-0.255l-0.046-0.414l-0.239,0.131l-0.127,0.505l-0.349-0.368l-0.014-0.348l-0.332-0.288 l-0.125-0.122h-0.387l0.123,0.346l0.465,0.26l0.08,0.086l-0.101,0.05l0.004,0.273l-0.227,0.095l-0.193-0.042l-0.121-0.172 l0.314,0.017l0.086-0.114l-0.699-0.472l-0.055-0.2l-0.283,0.256l-0.287-0.059l-0.438,0.57l-0.086,0.223l-0.279,0.024l-0.416,0.003 l-0.248-0.116l-0.072-0.491l0.09-0.235l0.421-0.092l0.461,0.092l0.057-0.254l-0.197-0.047l0.068-0.396l0.463-0.072l0.324-0.457 l0.332-0.056l0.303,0.044h0.111l-0.063-0.429L28.48,11.84l-0.129-0.321l-0.213-0.029l-0.041-0.221l0.176-0.188l0.412-0.162 l0.105-0.189c-1.576-1.389-3.646-2.235-5.906-2.235c-1.963,0-3.779,0.638-5.256,1.714l0.449-0.004l0.201,0.11l0.379,0.083 l0.029,0.148l0.604,0.022l-0.082-0.193l-0.535-0.015l0.125-0.119L18.756,10.1h-0.484l0.527-0.396h0.508l0.236,0.328l0.395,0.021 l0.238-0.23l0.178,0.09l-0.326,0.319c0,0-0.453,0.008-0.432,0.008s0.037,0.313,0.037,0.313l0.551-0.016l0.059-0.148l0.379-0.021 l0.045-0.224l-0.223-0.038l0.074-0.201l0.17-0.051l0.596,0.029l-0.328,0.298l0.053,0.23l0.342,0.052l-0.022-0.417l0.328-0.172 l0.578-0.066l0.84,0.372v0.319l0.27,0.067l-0.135,0.253h-0.379l-0.111,0.289l-0.867-0.205l0.682-0.362l-0.26-0.221l-0.588,0.075 l-0.053,0.053l-0.002-0.001l-0.008,0.013l-0.17,0.176l-0.279,0.023l0.021,0.14l0.098,0.04l-0.002,0.047l-0.229,0.031l-0.018,0.132 l-0.216,0.011l-0.039-0.262l-0.391,0.118l-0.797,0.468l0.09,0.327l0.223,0.146l0.445,0.062v0.507l0.207-0.033l0.189-0.396 l0.475-0.15V11.24l0.264-0.199l0.637,0.15l-0.045,0.401h0.17l0.471-0.23l0.021,0.528l0.342,0.208l-0.016,0.313l-0.326,0.112 l0.023,0.103l0.393,0.18l-0.006,0.215l-0.115,0.01c0-0.003-0.002-0.006-0.002-0.006l-0.496-0.153l-0.021-0.16l0.145-0.1v-0.145 l-0.156-0.039l-0.039,0.134l-0.273,0.043l-0.027-0.01v0.014l-0.096,0.015l-0.076-0.156l-0.09-0.039h-0.195l-0.09,0.072v0.161 l0.168,0.057l0.164,0.022l-0.035,0.017l-0.15,0.167l-0.066-0.084l-0.15-0.041l-0.396,0.374l0.053,0.042l-0.586,0.325l-0.551,0.571 l-0.037,0.255l-0.551,0.363l-0.273,0.274l0.029,0.55l-0.379-0.176l0.002-0.323l-1.055,0.001l-0.547,0.276l-0.236,0.438 l-0.094,0.347l0.152,0.336l0.432,0.053l0.684-0.457l0.061,0.226l-0.209,0.396l0.52,0.089l0.053,0.804l0.715,0.122l0.453-0.525 l0.551,0.112l0.191,0.269l0.529-0.03l0.014-0.157l0.291,0.143l0.326,0.513l0.566,0.008l0.207,0.364l0.029,0.445l0.625,0.238 l0.787,0.007l0.231,0.379l0.351,0.112l-0.066,0.313l-0.383,0.487l-0.113,1.075l-0.346,0.274l-0.514-0.016l-0.17,0.297l0.127,0.559 l-0.559,0.713l-0.178,0.328l-0.531,0.256l-0.35,0.054l-0.016,0.146l0.246,0.071l-0.029,0.159l-0.221,0.212l0.133,0.168 l0.266,0.008l-0.016,0.204l-0.07,0.2l-0.021,0.164l0.391,0.33l-0.053,0.171l-0.531-0.011l-0.529-0.463l-0.414-0.726l0.059-0.7 l-0.313-0.417l0.127-0.706l-0.186-0.052v-1.531c0,0-0.521-0.396-0.551-0.396c-0.031,0-0.275-0.065-0.275-0.065l-0.053-0.291 l-0.676-0.847l0.066-0.306l0.021-0.498l0.469-0.327l-0.066-0.558l-0.684-0.052l-0.535-0.609l-0.381-0.104l-0.243-0.045 l0.029-0.223l-0.311-0.044v0.125L16.264,16.7l-0.313-0.48l0.127-0.232l-0.494-0.723L15.5,14.737h-0.201l0.066,0.514l0.342,0.528 l-0.037,0.209l-0.289-0.045l-0.357-0.609v-0.707l-0.371-0.179v-0.51c-0.459,1.076-0.715,2.26-0.715,3.502 c0,4.934,4.014,8.947,8.947,8.947c2.796,0,5.296-1.291,6.939-3.307h-0.295v-0.596l-0.343-0.461V21.31l-0.262-0.261l-0.021-0.298 l0.329-0.633l-0.627-1.106l0.074-0.752l-0.563-0.06l-0.209-0.208h-0.381l-0.191,0.179h-0.67l-0.021,0.06h-0.373l-0.854-0.974 l0.008-0.759l0.141-0.052l0.054-0.29h-0.201l-0.082-0.305l0.988-0.713v-0.506l0.483-0.27l0.195,0.02h0.398l0.312-0.168 l1.004-0.078v0.515l0.793,0.2l0.154,0.111h0.146v-0.279l0.457-0.044l0.435,0.323h0.715l0.051-0.045 c-0.072-0.242-0.152-0.478-0.242-0.709L30.761,14.216z M27.001,11.662l0.082-0.126l0.295-0.059l0.072,0.356l0.157,0.253 l0.104,0.119l0.188,0.073l-0.178,0.212l-0.346,0.034h-0.262l0.03-0.309l0.216-0.044l-0.019-0.146l-0.201-0.127l-0.143-0.096v-0.14 H27.001z M26.518,12.221l0.181-0.286l0.239-0.057l0.172,0.074l-0.016,0.194l-0.367,0.26h-0.209V12.221z M21.657,13.321 l-0.186,0.015l0.01-0.129l0.084-0.104l0.111,0.087L21.657,13.321z M22.311,13.093l-0.127,0.011l-0.027,0.123l-0.098,0.061 l-0.156,0.013c-0.006-0.036-0.01-0.064-0.01-0.064h-0.061v-0.132h0.258l0.053-0.137l0.102-0.002l0.115,0.023L22.311,13.093z"></path> </g> </g> </g></svg>