<svg fill="currentColor" height="200px" width="200px" version="1.1" id="Layer_1" xmlns="http://www.w3.org/2000/svg" xmlns:xlink="http://www.w3.org/1999/xlink" viewBox="0 0 512 512" xml:space="preserve"><g id="SVGRepo_bgCarrier" stroke-width="0"></g><g id="SVGRepo_tracerCarrier" stroke-linecap="round" stroke-linejoin="round"></g><g id="SVGRepo_iconCarrier"> <g> <g> <path d="M443.095,307.387c-5.715-20.398-22.495-36.606-44.041-40.915l-20.619-4.124v-39.739c0-27.618-22.469-50.087-50.087-50.087 H228.174c-27.508,0-49.9,22.292-50.078,49.758l-66.792-13.358V89.044c0-27.618-22.469-50.087-50.087-50.087H16.696 C7.475,38.957,0,46.432,0,55.652c0,9.22,7.475,16.696,16.696,16.696h44.522c9.206,0,16.696,7.49,16.696,16.696 c0,14.963,0,209.694,0,218.723c-38.057,7.757-66.783,41.485-66.783,81.799c0,46.03,37.448,83.478,83.478,83.478 c40.313,0,74.042-28.725,81.799-66.783h170.316c7.756,38.057,41.485,66.783,81.799,66.783c46.03,0,83.478-37.448,83.478-83.478 C512,348.508,482.197,314.303,443.095,307.387z M211.478,222.609c0-9.206,7.49-16.696,16.696-16.696h100.174 c9.206,0,16.696,7.49,16.696,16.696v33.061l-133.565-26.713V222.609z M94.609,439.652c-27.618,0-50.087-22.469-50.087-50.087 c0-27.618,22.469-50.087,50.087-50.087c27.618,0,50.087,22.469,50.087,50.087C144.696,417.183,122.227,439.652,94.609,439.652z M346.721,372.87H176.41c-6.665-32.879-32.8-58.557-65.105-65.105v-18.373v-46.417c9.323,1.864,265.184,53.036,281.2,56.24 c6.144,1.229,11.363,4.768,14.822,9.599C376.736,316.849,353.113,341.733,346.721,372.87z M428.522,439.652 c-27.618,0-50.087-22.469-50.087-50.087c0-27.618,22.469-50.087,50.087-50.087s50.087,22.469,50.087,50.087 C478.609,417.183,456.14,439.652,428.522,439.652z"></path> </g> </g> </g></svg>