<svg fill="currentColor" height="200px" width="200px" version="1.1" id="Layer_1" xmlns="http://www.w3.org/2000/svg" xmlns:xlink="http://www.w3.org/1999/xlink" viewBox="0 0 512.001 512.001" xml:space="preserve"><g id="SVGRepo_bgCarrier" stroke-width="0"></g><g id="SVGRepo_tracerCarrier" stroke-linecap="round" stroke-linejoin="round"></g><g id="SVGRepo_iconCarrier"> <g> <g> <polygon points="434.553,322.799 434.554,322.799 434.606,322.666 "></polygon> </g> </g> <g> <g> <path d="M485.962,268.683c-13.095-13.942-30.217-22.146-51.006-24.521l-11.473-86.317h15.216v-31.347h-19.383l-5.474-41.187 h-71.088v27.671h-31.801v31.347h31.801v120.524c-0.5,2.398-2.44,10.129-7.85,17.81c-8.803,12.494-22.705,18.829-41.322,18.829 c-26.62,0-40.11-11.538-43.859-22.337c-1.197-3.449-1.613-7.734-0.029-11.161h24.35v-62.311h-0.002v-47.709H133.376v47.709 h-24.377c-1.123-0.019-1.942-0.01-2.409,0h-5.286C45.444,205.683,0,251.132,0,306.999V379.4h55.171 c6.984,27.16,31.68,47.292,60.99,47.292c29.309,0,54.004-20.131,60.988-47.292h174.91c0.054,0,0.108-0.003,0.162-0.004 c6.982,27.163,31.679,47.295,60.99,47.295c34.719,0,62.965-28.246,62.965-62.965c0-0.028-0.001-0.083-0.001-0.119h34.664 l1.017-14.585C511.994,347.017,514.943,299.542,485.962,268.683z M374.101,116.657h12.285l6.466,48.645h-18.751V116.657z M164.723,189.322h77.97v16.354h-77.97V189.322z M116.161,395.344c-11.732,0-21.985-6.429-27.442-15.944h54.883 C138.146,388.914,127.893,395.344,116.161,395.344z M362.983,347.017l-0.009,0.002v-0.001c-3.538,0.685-7.21,1.033-10.913,1.033 H31.347v-41.052c0-38.581,31.383-69.968,69.957-69.968h7.551c6.221,0.15,30.511,1.791,47.067,17.736 c11.555,11.128,17.412,27.557,17.412,48.831h31.347c0-27.409-7.553-49.754-22.417-66.567h54.441l-3.785,2.987 c-14.288,11.28-19.317,30.677-12.812,49.417c7.284,20.983,30.411,43.404,73.472,43.404c36.628,0,56.624-17.468,66.948-32.121 c10.862-15.417,13.197-30.693,13.428-32.385l0.144-1.053v-70.631h22.917l6.233,46.894h-0.014l2.346,17.62l2.738,20.564l0.057,0.39 c0.133,0.837,0.243,1.679,0.339,2.522c0.015,0.131,0.028,0.26,0.042,0.391c0.087,0.809,0.159,1.62,0.21,2.432 c0.002,0.032,0.005,0.065,0.007,0.098c0.05,0.812,0.079,1.625,0.095,2.438c0.004,0.217,0.005,0.434,0.007,0.651 c0.005,0.632-0.001,1.264-0.016,1.895c-0.098,3.94-0.597,7.857-1.499,11.678c-0.217,0.913-0.468,1.852-0.744,2.796 c-0.036,0.122-0.07,0.246-0.107,0.368l-0.047,0.155c-0.076,0.248-0.151,0.492-0.224,0.726c-0.079,0.25-0.161,0.498-0.243,0.747 c-0.158,0.473-0.323,0.945-0.492,1.413l-0.153,0.423c-0.227,0.609-0.461,1.215-0.707,1.815c-0.001,0.002-0.002,0.004-0.002,0.006 c-0.064,0.157-0.136,0.309-0.201,0.465l-0.064,0.145c-0.27,0.643-0.568,1.306-0.884,1.978c-0.044,0.094-0.09,0.188-0.134,0.282 c-0.271,0.568-0.558,1.143-0.854,1.716c-0.091,0.176-0.182,0.351-0.275,0.526c-0.17,0.32-0.34,0.637-0.522,0.953l-0.163,0.287 c-0.173,0.315-0.353,0.629-0.539,0.937l-0.4,0.66c-0.171,0.297-0.358,0.585-0.547,0.878l-0.155,0.242 c-0.21,0.335-0.42,0.653-0.633,0.974c-0.245,0.368-0.49,0.728-0.742,1.088c-0.099,0.137-0.192,0.268-0.272,0.383 c-0.093,0.135-0.192,0.264-0.293,0.395l-0.253,0.336c-0.506,0.692-0.971,1.296-1.42,1.847l-0.078,0.098 c-0.367,0.456-0.743,0.902-1.153,1.378c-0.467,0.547-0.955,1.085-1.449,1.614l-0.206,0.226c-0.166,0.185-0.347,0.368-0.566,0.595 l-0.396,0.406c-0.248,0.254-0.488,0.496-0.738,0.742c-0.046,0.045-0.094,0.089-0.14,0.134l-0.509,0.484 c-0.168,0.169-0.34,0.327-0.514,0.485l-0.17,0.157c-0.543,0.507-1.104,0.994-1.645,1.457c-0.38,0.323-0.765,0.642-1.154,0.955 c-0.045,0.037-0.09,0.072-0.135,0.109l-0.093,0.074C380.414,341.37,371.919,345.29,362.983,347.017z M413.21,395.344 c-13.933,0-25.791-9.059-29.989-21.597c6.807-2.567,13.297-5.976,19.279-10.136l0.638,0.001l0.006-0.005h41.671l0.004,0.852 C444.429,381.555,430.399,395.344,413.21,395.344z M430.245,332.26v-0.001c0.011-0.022,0.022-0.045,0.033-0.066 c0.015-0.028,0.028-0.053,0.044-0.08c0.183-0.349,0.342-0.693,0.518-1.041c1.011-1.987,1.956-4.012,2.818-6.081 c0.057-0.133,0.113-0.27,0.168-0.405l0.057-0.063l0.592-1.53l0.077-0.194l-0.002-0.001l0.106-0.273l0.004,0.001 c0.011-0.029,0.021-0.058,0.031-0.088l0.004,0.002l0.044-0.118c0.073-0.192,0.145-0.382,0.214-0.575 c0.193-0.503,0.372-1.018,0.545-1.532c0.092-0.264,0.183-0.528,0.273-0.793c0.101-0.298,0.205-0.594,0.302-0.895 c0.005-0.016,0.009-0.032,0.015-0.049c0.003-0.008,0.006-0.016,0.008-0.024c0.072-0.221,0.139-0.445,0.208-0.668 c0.123-0.389,0.246-0.777,0.364-1.167l0.147-0.484c0.001-0.002,0.001-0.005,0.002-0.007c0.001-0.004,0.003-0.009,0.004-0.014 c0.102-0.34,0.196-0.697,0.296-1.044c0.084-0.297,0.171-0.59,0.252-0.887c0.206-0.756,0.405-1.543,0.601-2.354 c0.023-0.096,0.049-0.192,0.072-0.288c0.021-0.089,0.043-0.167,0.064-0.257c0.001-0.004,0.002-0.008,0.003-0.011 c0.051-0.223,0.097-0.43,0.146-0.645c0.149-0.657,0.286-1.288,0.412-1.898c0.134-0.653,0.256-1.284,0.367-1.902l0.017-0.097 c0-0.003,0.001-0.006,0.002-0.009l0.076-0.444l0.093-0.542c0.1-0.599,0.199-1.209,0.287-1.82c0.037-0.242,0.063-0.485,0.096-0.727 c0.004-0.027,0.007-0.055,0.01-0.083c0.011-0.086,0.023-0.172,0.034-0.259c0.059-0.446,0.121-0.891,0.177-1.342 c0.079-0.627,0.149-1.263,0.206-1.901c0.006-0.061,0.01-0.121,0.016-0.183c0.003-0.038,0.007-0.075,0.01-0.113 c0.048-0.502,0.088-1.004,0.125-1.508l0.013-0.163c0.032-0.463,0.066-0.928,0.089-1.399c0.013-0.195,0.016-0.392,0.026-0.588 c0.011-0.209,0.019-0.417,0.028-0.626c0.009-0.208,0.02-0.416,0.028-0.624c0.005-0.17,0.02-0.341,0.023-0.51 c0.007-0.232,0-0.464,0.005-0.696c0.022-0.938,0.029-1.878,0.022-2.817c-0.002-0.206,0.008-0.412,0.004-0.617 c-0.002-0.114-0.01-0.229-0.014-0.343c-0.023-1.229-0.069-2.457-0.143-3.684c-0.008-0.14-0.022-0.279-0.031-0.419 c-0.074-1.136-0.173-2.272-0.292-3.405c-0.025-0.242-0.05-0.483-0.077-0.725c-0.141-1.258-0.3-2.516-0.495-3.77l-0.101-0.761 c9.614,2.306,17.458,6.744,23.735,13.385c11.629,12.303,15.652,29.878,16.997,42.223H430.245z"></path> </g> </g> </g></svg>