<svg width="20" height="22" viewBox="0 0 20 22" fill="none" xmlns="http://www.w3.org/2000/svg">
<path d="M4.72012 12.8448C4.47944 12.875 4.23939 12.9072 4 12.9414M4.72012 12.8448C6.44957 12.6279 8.21174 12.5161 10 12.5161C11.7883 12.5161 13.5504 12.6279 15.2799 12.8448M4.72012 12.8448L4.34091 17.0161M15.2799 12.8448C15.5206 12.875 15.7606 12.9072 16 12.9414M15.2799 12.8448L15.6591 17.0161M15.6591 17.0161L15.8885 19.5393C15.9484 20.1981 15.4296 20.7661 14.7681 20.7661H5.23191C4.57038 20.7661 4.05164 20.1981 4.11153 19.5393L4.34091 17.0161M15.6591 17.0161H16.75C17.9926 17.0161 19 16.0088 19 14.7661V8.4718C19 7.39086 18.2321 6.45693 17.1631 6.29697C16.5293 6.20215 15.8916 6.11972 15.25 6.04993M4.34091 17.0161H3.25C2.00736 17.0161 1 16.0088 1 14.7661V8.4718C1 7.39086 1.7679 6.45693 2.83694 6.29697C3.47066 6.20215 4.10843 6.11972 4.75 6.04993M15.25 6.04993C13.5258 5.86236 11.7741 5.76611 10 5.76611C8.22587 5.76611 6.47423 5.86236 4.75 6.04993M15.25 6.04993V2.39111C15.25 1.76979 14.7463 1.26611 14.125 1.26611H5.875C5.25368 1.26611 4.75 1.76979 4.75 2.39111V6.04993M16 9.51611H16.0075V9.52361H16V9.51611ZM13 9.51611H13.0075V9.52361H13V9.51611Z" stroke="#0F172A" stroke-width="1.5" stroke-linecap="round" stroke-linejoin="round"/>
</svg>
