<svg width="18" height="19" viewBox="0 0 18 19" fill="none" xmlns="http://www.w3.org/2000/svg">
<path d="M0.75 1.89111C0.75 1.26979 1.25368 0.766113 1.875 0.766113H6.375C6.99632 0.766113 7.5 1.26979 7.5 1.89111V6.39111C7.5 7.01243 6.99632 7.51611 6.375 7.51611H1.875C1.25368 7.51611 0.75 7.01243 0.75 6.39111V1.89111Z" stroke="#0F172A" stroke-width="1.5" stroke-linecap="round" stroke-linejoin="round"/>
<path d="M0.75 11.6411C0.75 11.0198 1.25368 10.5161 1.875 10.5161H6.375C6.99632 10.5161 7.5 11.0198 7.5 11.6411V16.1411C7.5 16.7624 6.99632 17.2661 6.375 17.2661H1.875C1.25368 17.2661 0.75 16.7624 0.75 16.1411V11.6411Z" stroke="#0F172A" stroke-width="1.5" stroke-linecap="round" stroke-linejoin="round"/>
<path d="M10.5 1.89111C10.5 1.26979 11.0037 0.766113 11.625 0.766113H16.125C16.7463 0.766113 17.25 1.26979 17.25 1.89111V6.39111C17.25 7.01243 16.7463 7.51611 16.125 7.51611H11.625C11.0037 7.51611 10.5 7.01243 10.5 6.39111V1.89111Z" stroke="#0F172A" stroke-width="1.5" stroke-linecap="round" stroke-linejoin="round"/>
<path d="M3.75 3.76611H4.5V4.51611H3.75V3.76611Z" stroke="#0F172A" stroke-width="1.5" stroke-linecap="round" stroke-linejoin="round"/>
<path d="M3.75 13.5161H4.5V14.2661H3.75V13.5161Z" stroke="#0F172A" stroke-width="1.5" stroke-linecap="round" stroke-linejoin="round"/>
<path d="M13.5 3.76611H14.25V4.51611H13.5V3.76611Z" stroke="#0F172A" stroke-width="1.5" stroke-linecap="round" stroke-linejoin="round"/>
<path d="M10.5 10.5161H11.25V11.2661H10.5V10.5161Z" stroke="#0F172A" stroke-width="1.5" stroke-linecap="round" stroke-linejoin="round"/>
<path d="M10.5 16.5161H11.25V17.2661H10.5V16.5161Z" stroke="#0F172A" stroke-width="1.5" stroke-linecap="round" stroke-linejoin="round"/>
<path d="M16.5 10.5161H17.25V11.2661H16.5V10.5161Z" stroke="#0F172A" stroke-width="1.5" stroke-linecap="round" stroke-linejoin="round"/>
<path d="M16.5 16.5161H17.25V17.2661H16.5V16.5161Z" stroke="#0F172A" stroke-width="1.5" stroke-linecap="round" stroke-linejoin="round"/>
<path d="M13.5 13.5161H14.25V14.2661H13.5V13.5161Z" stroke="#0F172A" stroke-width="1.5" stroke-linecap="round" stroke-linejoin="round"/>
</svg>
