<?xml version="1.0" standalone="no"?>
<!DOCTYPE svg PUBLIC "-//W3C//DTD SVG 20010904//EN"
 "http://www.w3.org/TR/2001/REC-SVG-20010904/DTD/svg10.dtd">
<svg version="1.0" xmlns="http://www.w3.org/2000/svg"
 width="500.000000pt" height="500.000000pt" viewBox="0 0 500.000000 500.000000"
 preserveAspectRatio="xMidYMid meet">

<g transform="translate(0.000000,500.000000) scale(0.100000,-0.100000)"
fill="currentColor" stroke="none">
<path d="M2160 4794 c-402 -28 -737 -67 -795 -93 -61 -27 -111 -76 -142 -139
l-28 -57 -3 -647 -3 -648 -52 0 c-61 0 -117 25 -134 60 -9 18 -13 109 -13 343
0 343 -1 351 -55 415 -81 97 -257 109 -355 24 -74 -63 -80 -85 -80 -340 0
-240 3 -259 55 -320 39 -46 99 -74 172 -80 l62 -5 11 -51 c20 -92 74 -163 160
-208 35 -18 65 -24 138 -26 l92 -4 0 -938 c0 -1017 -2 -979 55 -1054 14 -18
49 -46 77 -62 136 -75 308 -3 352 147 9 29 16 87 16 129 l0 77 101 -20 c55
-10 102 -17 104 -15 1 1 10 93 19 203 9 110 24 225 32 255 50 175 195 319 369
365 80 20 264 20 336 -1 179 -53 319 -193 365 -366 7 -28 20 -142 30 -252 9
-111 17 -203 19 -204 2 -2 48 5 103 15 l100 19 4 -95 c3 -58 12 -112 22 -136
57 -133 217 -190 344 -120 28 15 63 43 77 61 57 75 55 37 55 1055 l0 939 78 0
c45 0 98 7 124 16 90 30 167 120 188 220 l11 51 62 5 c73 6 133 34 172 80 52
61 55 80 55 320 0 255 -6 277 -80 340 -98 85 -274 73 -355 -24 -54 -64 -55
-72 -55 -415 0 -234 -4 -325 -13 -343 -17 -35 -73 -60 -134 -60 l-52 0 -3 648
-3 647 -28 57 c-31 64 -81 112 -144 140 -45 20 -227 44 -543 73 -165 16 -760
28 -890 19z m900 -218 c255 -24 422 -45 453 -58 57 -23 57 -19 57 -588 l0
-520 -437 0 -436 0 20 23 c73 82 513 587 531 611 31 40 30 99 -2 131 -31 31
-69 40 -104 26 -15 -7 -171 -176 -367 -401 l-340 -389 -522 -1 -523 0 0 520
c0 569 0 565 57 589 32 13 313 45 523 61 80 6 163 12 185 14 97 9 751 -4 905
-18z m-1185 -1584 c68 -33 105 -93 105 -171 0 -87 -37 -146 -115 -182 -128
-59 -275 36 -275 177 0 148 152 242 285 176z m1404 -10 c135 -81 116 -285 -31
-347 -80 -33 -174 -5 -232 68 -25 31 -31 49 -34 101 -7 108 47 181 153 207 45
10 95 0 144 -29z"/>
<path d="M2337 1906 c-87 -32 -161 -108 -193 -198 -9 -26 -24 -154 -39 -328
-27 -330 -26 -333 49 -368 210 -99 442 -99 652 0 76 35 76 37 48 378 -23 285
-25 297 -55 357 -30 63 -80 112 -149 149 -47 24 -256 31 -313 10z"/>
<path d="M2181 623 c4 -149 6 -161 32 -215 30 -61 74 -105 140 -140 60 -33
194 -33 254 0 66 35 110 79 140 140 26 54 28 66 32 215 2 103 0 157 -7 157 -6
0 -50 -10 -99 -21 -61 -15 -120 -21 -193 -21 -73 0 -132 6 -193 21 -49 11 -93
21 -99 21 -7 0 -9 -54 -7 -157z"/>
</g>
</svg>
