<svg width="22" height="18" viewBox="0 0 22 18" fill="none" xmlns="http://www.w3.org/2000/svg">
<path d="M1.0355 9.32484C0.96642 9.11757 0.966354 8.89318 1.03531 8.68587C2.42368 4.51216 6.36074 1.50244 11.0008 1.50244C15.6386 1.50244 19.5742 4.50937 20.9643 8.68004C21.0334 8.88731 21.0334 9.11171 20.9645 9.31902C19.5761 13.4927 15.639 16.5024 10.999 16.5024C6.36115 16.5024 2.42559 13.4955 1.0355 9.32484Z" stroke="#0F172A" stroke-width="1.5" stroke-linecap="round" stroke-linejoin="round"/>
<path d="M14 9.00244C14 10.6593 12.6568 12.0024 11 12.0024C9.3431 12.0024 7.99995 10.6593 7.99995 9.00244C7.99995 7.34559 9.3431 6.00244 11 6.00244C12.6568 6.00244 14 7.34559 14 9.00244Z" stroke="#0F172A" stroke-width="1.5" stroke-linecap="round" stroke-linejoin="round"/>
</svg>
