<?xml version="1.0" encoding="utf-8"?>
<svg fill="none" height="24" viewBox="0 0 24 24" width="24" xmlns="http://www.w3.org/2000/svg">
<path d="M21.75 6.75684C21.75 9.24212 19.7353 11.2568 17.25 11.2568C17.1206 11.2568 16.9925 11.2514 16.8659 11.2407C15.7904 11.1498 14.6016 11.312 13.9155 12.1452L6.76432 20.8287C6.28037 21.4164 5.55897 21.7568 4.79769 21.7568C3.39064 21.7568 2.25 20.6162 2.25 19.2092C2.25 18.4479 2.59044 17.7265 3.1781 17.2425L11.8617 10.0914C12.6948 9.40525 12.8571 8.21639 12.7662 7.14095C12.7555 7.01433 12.75 6.88622 12.75 6.75684C12.75 4.27155 14.7647 2.25684 17.25 2.25684C17.9103 2.25684 18.5375 2.39907 19.1024 2.65457L15.8262 5.9308C16.0823 7.04647 16.9605 7.92469 18.0762 8.1808L21.3524 4.90463C21.6078 5.46951 21.75 6.09657 21.75 6.75684Z" stroke="currentColor" stroke-linecap="round" stroke-linejoin="round" stroke-width="1.5"/>
<path d="M4.86723 19.1319H4.87473V19.1394H4.86723V19.1319Z" stroke="currentColor" stroke-linecap="round" stroke-linejoin="round" stroke-width="1.5"/>
</svg>