<?xml version="1.0" encoding="utf-8"?>
<!DOCTYPE svg PUBLIC "-//W3C//DTD SVG 20010904//EN" "http://www.w3.org/TR/2001/REC-SVG-20010904/DTD/svg10.dtd">
<svg version="1.0" xmlns="http://www.w3.org/2000/svg" width="2002pt" height="1025pt" viewBox="0 0 2002 1025" style="" preserveAspectRatio="xMidYMid meet">
<g fill="#005952FF" stroke="#005952FF">
<path d="M 492.538 254.525 C 491.080 257.014 483.800 266.351 476.360 275.275 C 468.921 284.199 460.758 294.829 458.221 298.898 C 448.896 313.854 444.922 331.223 446.948 348.171 C 448.043 357.328 449.304 361.437 461.425 395.339 C 473.564 429.291 479.450 466.912 482.533 530.250 C 482.964 539.109 482.823 543.000 482.072 543.000 C 480.090 543.000 471.101 529.641 465.586 518.500 C 462.591 512.450 457.144 499.850 453.483 490.500 C 449.821 481.150 443.907 466.075 440.341 457.000 C 410.035 379.888 377.121 347.903 330.552 350.310 C 316.645 351.029 310.287 352.742 296.500 359.486 C 286.676 364.291 266.798 377.924 263.077 382.408 C 261.924 383.796 262.096 384.000 264.420 384.000 C 269.111 384.000 281.503 386.938 288.102 389.615 C 299.089 394.072 310.703 402.415 322.548 414.359 C 335.771 427.694 348.669 444.708 368.520 475.000 C 376.629 487.375 385.778 501.325 388.851 506.000 C 399.012 521.459 415.225 542.205 425.402 552.772 C 442.218 570.231 457.518 580.112 475.500 585.129 C 487.456 588.464 505.177 588.223 517.463 584.559 C 533.389 579.809 546.792 571.476 561.313 557.297 C 577.199 541.787 590.295 524.592 613.712 488.500 C 621.919 475.850 632.373 460.100 636.942 453.500 C 668.299 408.203 691.602 389.275 721.751 384.613 L 729.346 383.439 722.423 377.688 C 708.103 365.794 692.295 356.807 678.973 352.988 C 668.260 349.918 651.814 349.250 640.948 351.445 C 611.946 357.302 587.714 379.747 567.618 419.368 C 559.649 435.077 551.758 453.649 541.005 482.000 C 531.280 507.640 520.876 529.255 514.292 537.500 L 509.500 543.500 509.169 536.500 C 508.449 521.264 512.192 474.320 516.106 449.500 C 520.097 424.192 524.694 407.398 534.994 380.500 C 543.076 359.394 544.350 353.823 544.374 339.500 C 544.413 315.624 538.713 303.695 512.125 272.013 C 505.900 264.595 499.682 256.607 498.308 254.263 C 496.934 251.918 495.670 250.000 495.500 250.000 C 495.330 250.000 493.997 252.036 492.538 254.525 "/></g>
<g fill="#147DEFFF" stroke="#147DEFFF">
<path d="M 248.416 415.098 C 248.674 415.869 250.247 422.211 251.910 429.192 C 264.288 481.138 288.909 529.877 316.825 557.694 C 343.960 584.733 379.119 604.506 427.500 619.935 C 448.534 626.643 448.101 625.509 431.732 631.014 C 402.249 640.930 374.420 655.693 351.000 673.841 C 342.262 680.612 323.998 698.351 318.278 705.622 L 315.056 709.717 323.103 716.609 C 327.529 720.399 336.121 726.986 342.196 731.246 L 353.242 738.992 363.660 723.330 C 386.585 688.866 405.787 668.059 428.421 653.158 C 451.914 637.691 480.668 630.213 505.948 632.994 C 538.327 636.557 563.472 649.246 589.031 674.921 C 602.712 688.665 612.218 700.597 626.314 721.721 L 637.776 738.897 646.533 732.921 C 655.974 726.479 671.405 714.429 674.258 711.271 C 675.958 709.389 675.808 709.080 669.691 701.912 C 643.642 671.387 603.807 645.884 558.107 630.474 C 551.290 628.176 546.115 626.064 546.607 625.782 C 547.098 625.500 555.375 622.661 565.000 619.473 C 597.583 608.681 621.404 597.700 641.616 584.155 C 655.406 574.913 670.413 562.611 677.932 554.384 C 705.532 524.186 729.753 473.494 740.900 422.604 L 742.848 413.707 732.584 414.288 C 716.403 415.205 706.303 419.836 693.130 432.379 C 679.849 445.025 669.381 459.458 640.611 504.791 C 615.513 544.337 604.100 559.654 586.999 576.740 C 561.860 601.855 537.219 614.419 505.977 618.051 C 483.966 620.610 457.804 614.660 436.647 602.283 C 407.862 585.444 383.678 558.125 350.969 505.500 C 327.755 468.151 314.945 450.123 302.137 436.776 C 292.467 426.699 283.006 419.886 274.590 416.939 C 267.001 414.282 247.687 412.923 248.416 415.098 "/></g>
<g fill="#005952FF" stroke="#005952FF">
<path d="M 480.342 664.411 C 451.778 669.869 428.559 687.033 402.262 722.129 C 392.048 735.761 380.507 752.873 381.146 753.439 C 382.595 754.720 400.834 761.950 411.500 765.471 C 423.917 769.570 443.818 774.490 450.764 775.177 L 454.028 775.500 458.426 762.402 C 465.028 742.742 473.403 726.998 485.503 711.500 C 488.938 707.100 492.641 702.700 493.733 701.723 C 495.659 699.998 495.827 700.066 499.394 704.014 C 514.596 720.841 527.940 744.889 534.345 767.000 L 536.807 775.500 540.153 775.187 C 546.266 774.616 565.800 769.959 577.125 766.373 C 586.536 763.392 608.581 754.679 609.899 753.418 C 610.630 752.718 591.253 724.645 582.692 714.000 C 572.585 701.434 556.888 686.019 548.206 680.132 C 539.370 674.143 526.898 668.382 517.500 665.950 C 507.191 663.283 489.977 662.569 480.342 664.411 "/></g>
<g fill="#005952FF" stroke="#005952FF">
<path d="M 753.095 486.634 C 746.600 503.298 738.144 521.324 731.203 533.304 C 709.464 570.829 677.470 601.423 638.158 622.277 L 627.816 627.763 639.158 635.256 C 658.461 648.009 674.571 661.903 690.108 679.198 L 697.922 687.896 704.139 680.198 C 711.071 671.615 724.000 652.244 724.000 650.441 C 724.000 648.020 698.241 638.436 678.559 633.534 L 665.618 630.311 673.059 628.060 C 677.152 626.822 684.775 623.611 690.000 620.924 C 725.285 602.781 752.247 566.191 759.580 526.500 C 761.552 515.823 761.638 494.796 759.763 481.634 L 758.500 472.768 753.095 486.634 "/></g>
<g fill="#005952FF" stroke="#005952FF">
<path d="M 232.603 476.596 C 229.698 490.132 229.265 511.360 231.615 525.074 C 239.570 571.496 274.300 613.320 316.698 627.537 L 325.895 630.621 315.698 632.916 C 299.563 636.548 267.011 648.033 267.002 650.097 C 266.994 652.187 282.804 675.078 291.277 685.243 L 293.563 687.985 303.532 677.001 C 319.070 659.879 340.349 642.090 357.750 631.675 C 360.638 629.947 362.995 628.300 362.988 628.016 C 362.982 627.732 359.078 625.475 354.314 623.000 C 328.487 609.583 298.151 585.366 281.778 565.095 C 266.246 545.863 248.553 514.047 238.127 486.596 C 233.870 475.387 233.145 474.074 232.603 476.596 "/></g>
<g fill="#F97910FF" stroke="#F97910FF">
<path d="M 451.000 250.701 C 402.729 258.986 352.376 283.355 318.000 315.068 C 312.787 319.877 312.657 320.113 315.500 319.579 C 323.254 318.122 343.272 317.787 352.579 318.959 C 372.338 321.446 392.404 329.438 406.500 340.436 L 413.500 345.897 414.221 334.692 C 415.992 307.158 425.597 285.994 448.657 258.815 C 452.770 253.967 455.543 250.061 454.818 250.136 C 454.093 250.211 452.375 250.465 451.000 250.701 "/></g>
<g fill="#F97910FF" stroke="#F97910FF">
<path d="M 542.739 259.198 C 566.511 287.495 575.156 306.645 576.809 334.670 L 577.500 346.386 581.000 343.359 C 601.318 325.785 630.092 316.728 660.415 318.363 C 667.062 318.722 673.850 319.265 675.500 319.572 C 678.416 320.113 678.359 319.996 673.500 315.416 C 639.968 283.813 588.450 259.016 538.712 250.541 L 534.924 249.895 542.739 259.198 "/></g>
<g fill="#005952FF" stroke="#005952FF">
<path d="M 890.081 482.022 C 886.550 482.514 883.063 483.146 882.331 483.427 C 881.267 483.835 881.000 489.547 881.000 511.907 L 881.000 539.877 885.750 540.689 C 888.363 541.135 895.900 541.500 902.500 541.500 C 913.444 541.500 914.893 541.280 918.961 539.000 C 925.098 535.561 928.000 530.988 928.000 524.756 C 928.000 518.913 925.703 514.479 921.775 512.740 C 918.446 511.266 918.384 510.868 921.102 508.407 C 926.522 503.503 927.398 495.176 923.126 489.177 C 918.431 482.583 905.757 479.839 890.081 482.022 M 910.238 517.049 C 916.588 518.813 917.878 524.276 913.077 529.077 C 910.458 531.696 909.496 531.999 903.827 531.986 C 893.036 531.963 893.000 531.934 893.000 523.383 L 893.000 516.000 899.750 516.006 C 903.463 516.009 908.182 516.478 910.238 517.049 M 907.221 492.044 C 913.747 493.857 916.053 500.186 911.826 504.686 C 909.891 506.745 908.735 507.000 901.326 507.000 L 893.000 507.000 893.000 499.560 L 893.000 492.121 896.750 491.728 C 898.813 491.513 901.175 491.263 902.000 491.174 C 902.825 491.084 905.174 491.476 907.221 492.044 "/></g>
<g fill="#005952FF" stroke="#005952FF">
<path d="M 1026.429 594.837 C 1013.063 601.091 1009.782 622.208 1020.367 633.845 C 1026.953 641.085 1038.450 641.426 1044.750 634.568 L 1048.000 631.029 1048.000 637.115 C 1048.000 642.670 1047.711 643.489 1044.690 646.510 C 1039.094 652.106 1030.208 652.202 1021.194 646.762 L 1017.887 644.767 1018.194 650.080 C 1018.495 655.307 1018.576 655.431 1023.230 657.821 C 1033.188 662.934 1049.166 659.535 1054.740 651.118 C 1058.480 645.468 1058.989 641.421 1058.994 617.250 L 1059.000 594.000 1053.500 594.000 C 1048.271 594.000 1048.000 594.126 1048.000 596.551 L 1048.000 599.102 1044.428 596.377 C 1039.710 592.779 1032.201 592.136 1026.429 594.837 M 1044.923 606.589 C 1047.628 608.865 1048.000 609.801 1047.996 614.339 C 1047.989 623.949 1041.014 630.480 1033.430 627.977 C 1024.641 625.076 1022.323 613.831 1029.115 607.039 C 1033.247 602.907 1040.309 602.706 1044.923 606.589 "/></g>
<g fill="#005952FF" stroke="#005952FF">
<path d="M 1026.491 400.865 C 1017.891 404.772 1013.138 414.362 1014.287 425.489 C 1015.440 436.660 1022.014 444.005 1031.567 444.797 C 1038.009 445.331 1042.093 443.867 1045.520 439.794 L 1048.000 436.847 1048.000 442.788 C 1048.000 450.024 1045.969 453.082 1039.532 455.541 C 1034.261 457.554 1029.885 456.989 1022.751 453.374 L 1017.892 450.912 1018.196 456.152 C 1018.496 461.320 1018.567 461.427 1023.390 463.903 C 1034.477 469.596 1049.087 465.762 1055.500 455.476 L 1058.500 450.663 1058.812 425.332 L 1059.125 400.000 1053.562 400.000 C 1048.209 400.000 1048.000 400.100 1048.000 402.655 C 1048.000 405.141 1047.886 405.207 1046.213 403.693 C 1043.536 401.270 1037.487 398.997 1033.782 399.022 C 1031.977 399.034 1028.696 399.863 1026.491 400.865 M 1044.743 412.346 C 1047.720 414.323 1047.987 414.936 1047.993 419.800 C 1048.005 428.904 1043.881 434.000 1036.500 434.000 C 1027.272 434.000 1022.264 424.665 1026.835 415.984 C 1030.448 409.123 1037.678 407.654 1044.743 412.346 "/></g>
<g fill="#005952FF" stroke="#005952FF">
<path d="M 1359.655 497.459 C 1352.518 500.003 1348.645 505.143 1346.949 514.320 C 1344.943 525.170 1349.261 536.052 1357.173 540.088 C 1363.498 543.315 1371.876 542.482 1376.309 538.185 C 1378.116 536.433 1379.967 535.000 1380.421 535.000 C 1380.876 535.000 1381.042 537.485 1380.790 540.522 C 1380.434 544.813 1379.716 546.687 1377.569 548.928 C 1372.386 554.338 1362.430 554.787 1354.250 549.978 L 1351.000 548.067 1351.000 553.363 L 1351.000 558.658 1356.033 561.015 C 1365.145 565.283 1377.532 563.615 1384.376 557.197 C 1390.502 551.452 1390.954 549.028 1390.978 521.750 L 1391.000 497.000 1386.000 497.000 C 1381.667 497.000 1381.000 497.267 1381.000 499.000 C 1381.000 501.503 1381.063 501.509 1375.404 498.500 C 1370.167 495.716 1365.423 495.402 1359.655 497.459 M 1377.395 509.623 C 1381.227 512.226 1381.251 512.283 1380.703 517.590 C 1379.655 527.746 1373.525 533.373 1365.975 531.111 C 1361.621 529.806 1360.235 528.368 1358.520 523.380 C 1356.812 518.411 1358.132 513.183 1361.963 509.750 C 1366.119 506.026 1372.030 505.977 1377.395 509.623 "/></g>
<g fill="#005952FF" stroke="#005952FF">
<path d="M 1238.204 595.128 C 1230.518 598.933 1227.000 605.785 1227.000 616.953 C 1227.000 622.105 1227.584 624.779 1229.586 628.797 C 1232.596 634.837 1235.946 637.531 1242.182 638.929 C 1248.174 640.272 1253.117 638.817 1257.519 634.414 L 1261.000 630.933 1261.000 636.099 C 1261.000 649.265 1248.227 654.911 1235.199 647.503 L 1230.897 645.058 1231.199 650.279 C 1231.496 655.422 1231.571 655.535 1236.289 657.875 C 1245.102 662.245 1257.529 660.618 1264.376 654.197 C 1270.502 648.452 1270.954 646.028 1270.978 618.750 L 1271.000 594.000 1266.000 594.000 C 1261.255 594.000 1261.000 594.136 1261.000 596.655 C 1261.000 599.141 1260.886 599.207 1259.213 597.693 C 1253.869 592.856 1244.985 591.772 1238.204 595.128 M 1257.102 606.305 C 1260.348 608.506 1260.500 608.884 1260.493 614.741 C 1260.484 622.168 1258.226 625.826 1252.370 627.897 C 1248.877 629.132 1248.015 629.101 1244.916 627.631 C 1236.552 623.661 1235.570 610.916 1243.217 605.561 C 1246.541 603.233 1253.090 603.583 1257.102 606.305 "/></g>
<g fill="#005952FF" stroke="#005952FF">
<path d="M 1238.204 401.071 C 1230.489 404.992 1227.000 411.807 1227.000 422.953 C 1227.000 436.404 1234.487 445.000 1246.203 445.000 C 1251.856 445.000 1255.016 443.424 1259.217 438.509 C 1260.876 436.567 1260.935 436.679 1260.967 441.846 C 1260.987 445.054 1260.346 448.298 1259.364 449.960 C 1255.293 456.853 1245.240 458.484 1236.088 453.735 L 1230.897 451.042 1231.198 456.271 C 1231.497 461.445 1231.552 461.526 1236.419 463.938 C 1245.300 468.339 1257.423 466.717 1264.376 460.197 C 1270.502 454.452 1270.954 452.028 1270.978 424.750 L 1271.000 400.000 1266.000 400.000 C 1261.326 400.000 1261.000 400.164 1261.000 402.514 L 1261.000 405.028 1256.940 402.341 C 1251.322 398.624 1243.996 398.127 1238.204 401.071 M 1257.750 412.660 C 1260.551 414.765 1261.000 415.707 1261.000 419.486 C 1261.000 428.705 1256.607 434.000 1248.958 434.000 C 1244.772 434.000 1243.838 433.580 1241.104 430.465 C 1237.320 426.156 1236.906 420.306 1240.023 415.193 C 1243.908 408.822 1251.244 407.773 1257.750 412.660 "/></g>
<g fill="#005952FF" stroke="#005952FF">
<path d="M 881.000 706.000 L 881.000 735.000 886.968 735.000 L 892.937 735.000 893.218 723.250 L 893.500 711.500 903.500 723.239 L 913.500 734.977 921.178 734.739 L 928.855 734.500 918.971 724.000 C 913.535 718.225 909.067 713.213 909.043 712.861 C 909.020 712.510 910.688 711.917 912.750 711.544 C 921.356 709.987 927.016 703.348 926.984 694.849 C 926.958 688.200 923.573 683.044 917.071 679.750 C 911.850 677.106 911.051 677.000 896.321 677.000 L 881.000 677.000 881.000 706.000 M 912.587 690.306 C 917.250 695.728 914.739 701.916 907.033 703.991 C 904.856 704.577 901.821 704.791 900.287 704.466 C 898.754 704.141 896.488 703.669 895.250 703.418 C 893.140 702.990 893.000 702.459 893.000 694.878 L 893.000 686.795 901.587 687.147 C 909.548 687.474 910.349 687.704 912.587 690.306 "/></g>
<g fill="#005952FF" stroke="#005952FF">
<path d="M 1027.000 489.962 L 1027.000 502.028 1023.072 499.429 C 1013.765 493.270 1000.405 496.515 995.426 506.144 C 992.888 511.052 991.866 519.019 993.004 525.022 C 995.171 536.450 1002.530 542.564 1013.190 541.793 C 1018.368 541.418 1019.493 540.925 1023.019 537.482 L 1027.000 533.594 1027.000 537.297 L 1027.000 541.000 1032.514 541.000 L 1038.028 541.000 1037.764 509.750 L 1037.500 478.500 1032.250 478.198 L 1027.000 477.895 1027.000 489.962 M 1023.102 509.312 C 1026.350 511.522 1026.496 511.887 1026.416 517.594 C 1026.321 524.338 1024.355 528.248 1019.901 530.551 C 1009.812 535.768 999.941 523.750 1005.494 513.011 C 1008.779 506.659 1016.744 504.986 1023.102 509.312 "/></g>
<g fill="#005952FF" stroke="#005952FF">
<path d="M 1006.383 691.914 C 1004.118 692.942 1001.530 694.832 1000.633 696.114 L 999.000 698.445 999.000 694.723 L 999.000 691.000 993.500 691.000 L 988.000 691.000 988.000 723.500 L 988.000 756.000 993.500 756.000 L 999.000 756.000 999.000 743.432 L 999.000 730.864 1002.207 733.148 C 1007.037 736.587 1016.510 736.965 1021.902 733.935 C 1027.324 730.888 1030.829 725.579 1032.159 718.399 C 1034.374 706.452 1029.827 696.098 1020.509 691.865 C 1015.409 689.548 1011.562 689.562 1006.383 691.914 M 1015.835 702.415 C 1022.933 706.085 1023.532 717.850 1016.904 723.427 C 1012.856 726.833 1007.711 726.847 1002.732 723.464 C 999.181 721.051 999.000 720.661 999.000 715.414 C 999.000 712.382 999.681 708.584 1000.513 706.976 C 1003.289 701.606 1010.259 699.531 1015.835 702.415 "/></g>
<g fill="#005952FF" stroke="#005952FF">
<path d="M 1417.000 684.155 C 1417.000 695.763 1416.920 696.237 1415.213 694.693 C 1412.841 692.546 1406.629 689.999 1403.782 690.006 C 1392.841 690.032 1384.659 698.345 1383.375 710.738 C 1381.993 724.069 1389.014 734.718 1399.871 735.762 C 1406.475 736.396 1409.237 735.609 1413.482 731.882 L 1417.000 728.793 1417.000 731.896 C 1417.000 734.992 1417.015 735.000 1422.500 735.000 L 1428.000 735.000 1428.000 703.500 L 1428.000 672.000 1422.500 672.000 L 1417.000 672.000 1417.000 684.155 M 1413.923 703.589 C 1416.722 705.943 1417.000 706.714 1417.000 712.104 C 1417.000 717.456 1416.669 718.391 1413.577 721.765 C 1410.596 725.017 1409.572 725.500 1405.657 725.500 C 1394.767 725.500 1390.424 711.849 1398.685 703.588 C 1402.349 699.924 1409.568 699.925 1413.923 703.589 "/></g>
<g fill="#005952FF" stroke="#005952FF">
<path d="M 1096.000 703.500 L 1096.000 735.000 1101.500 735.000 L 1107.000 735.000 1107.000 731.804 L 1107.000 728.608 1110.414 731.917 C 1115.960 737.292 1126.883 737.494 1133.014 732.334 C 1142.807 724.094 1143.392 705.157 1134.140 695.905 C 1130.604 692.369 1125.055 690.017 1120.218 690.006 C 1117.371 689.999 1111.159 692.546 1108.787 694.693 C 1107.080 696.237 1107.000 695.763 1107.000 684.155 L 1107.000 672.000 1101.500 672.000 L 1096.000 672.000 1096.000 703.500 M 1125.393 703.888 C 1130.456 709.173 1130.541 717.913 1125.578 722.877 C 1123.515 724.940 1121.982 725.500 1118.400 725.500 C 1114.419 725.500 1113.416 725.031 1110.423 721.765 C 1107.281 718.336 1107.001 717.515 1107.017 711.765 C 1107.034 705.850 1107.215 705.374 1110.253 703.250 C 1115.118 699.849 1121.793 700.130 1125.393 703.888 "/></g>
<g fill="#005952FF" stroke="#005952FF">
<path d="M 1646.500 594.162 C 1645.400 594.768 1643.038 596.642 1641.250 598.328 L 1638.000 601.392 1638.000 597.696 L 1638.000 594.000 1633.000 594.000 L 1628.000 594.000 1628.000 626.500 L 1628.000 659.000 1633.000 659.000 L 1638.000 659.000 1638.000 646.500 C 1638.000 639.625 1638.243 634.000 1638.540 634.000 C 1638.838 634.000 1640.340 634.931 1641.879 636.069 C 1651.546 643.216 1665.474 638.688 1670.447 626.782 C 1672.648 621.513 1672.464 609.598 1670.104 604.500 C 1667.949 599.844 1663.687 595.576 1659.685 594.064 C 1656.064 592.695 1649.069 592.748 1646.500 594.162 M 1657.600 607.400 C 1660.535 610.335 1660.999 611.463 1660.993 615.650 C 1660.976 628.169 1649.538 633.160 1640.250 624.701 C 1636.084 620.906 1637.902 610.582 1643.514 606.168 C 1647.883 602.731 1653.415 603.215 1657.600 607.400 "/></g>
<g fill="#005952FF" stroke="#005952FF">
<path d="M 1647.000 400.118 C 1645.625 400.664 1643.038 402.524 1641.250 404.251 L 1638.000 407.392 1638.000 403.696 L 1638.000 400.000 1633.000 400.000 L 1628.000 400.000 1628.000 432.500 L 1628.000 465.000 1633.000 465.000 L 1638.000 465.000 1638.000 452.500 C 1638.000 445.625 1638.179 440.000 1638.398 440.000 C 1638.617 440.000 1640.754 441.120 1643.148 442.488 C 1653.195 448.232 1665.125 444.254 1670.104 433.500 C 1672.638 428.028 1672.641 415.984 1670.110 410.500 C 1665.954 401.495 1655.438 396.771 1647.000 400.118 M 1657.600 413.400 C 1660.501 416.301 1661.000 417.489 1661.000 421.496 C 1661.000 433.303 1650.681 438.570 1641.407 431.497 C 1638.537 429.308 1638.000 428.271 1638.000 424.917 C 1638.000 416.278 1643.149 410.000 1650.235 410.000 C 1653.411 410.000 1654.877 410.677 1657.600 413.400 "/></g>
<g fill="#005952FF" stroke="#005952FF">
<path d="M 1551.000 587.014 L 1551.000 599.028 1546.940 596.341 C 1538.147 590.523 1526.727 592.897 1520.513 601.834 C 1517.824 605.702 1517.463 607.109 1517.157 614.898 C 1516.867 622.296 1517.155 624.351 1519.042 628.366 C 1524.626 640.245 1538.838 643.216 1547.486 634.312 L 1551.000 630.693 1551.000 634.347 L 1551.000 638.000 1556.000 638.000 L 1561.000 638.000 1561.000 606.500 L 1561.000 575.000 1556.000 575.000 L 1551.000 575.000 1551.000 587.014 M 1547.102 606.284 C 1550.111 608.306 1550.531 609.137 1550.773 613.534 C 1551.135 620.131 1548.666 624.930 1543.652 627.379 C 1540.341 628.996 1539.254 629.093 1535.854 628.075 C 1526.785 625.357 1525.130 611.225 1533.217 605.561 C 1536.526 603.243 1543.086 603.584 1547.102 606.284 "/></g>
<g fill="#005952FF" stroke="#005952FF">
<path d="M 1541.000 490.014 L 1541.000 502.028 1537.018 499.393 C 1529.859 494.656 1520.495 495.188 1513.939 500.705 C 1508.071 505.642 1505.419 514.788 1507.014 524.586 C 1508.907 536.218 1516.359 542.576 1527.183 541.793 C 1532.089 541.438 1533.548 540.862 1536.309 538.185 C 1540.377 534.242 1541.000 534.217 1541.000 538.000 C 1541.000 540.933 1541.111 541.000 1546.000 541.000 L 1551.000 541.000 1551.000 509.500 L 1551.000 478.000 1546.000 478.000 L 1541.000 478.000 1541.000 490.014 M 1537.268 509.536 C 1540.595 511.797 1541.000 512.534 1541.000 516.324 C 1541.000 518.745 1540.031 522.498 1538.750 525.038 C 1534.591 533.285 1524.478 534.111 1519.885 526.580 C 1518.732 524.688 1518.006 521.629 1518.004 518.650 C 1518.001 514.465 1518.466 513.334 1521.400 510.400 C 1525.796 506.004 1531.605 505.688 1537.268 509.536 "/></g>
<g fill="#005952FF" stroke="#005952FF">
<path d="M 1551.000 393.014 L 1551.000 405.028 1546.823 402.264 C 1543.382 399.987 1541.547 399.500 1536.409 399.500 C 1531.092 399.500 1529.544 399.943 1525.913 402.500 C 1519.498 407.018 1517.000 412.559 1517.000 422.272 C 1517.000 429.025 1517.409 430.980 1519.700 435.190 C 1523.583 442.324 1529.097 445.378 1537.057 444.802 C 1542.386 444.417 1543.471 443.946 1547.019 440.482 L 1551.000 436.594 1551.000 440.297 L 1551.000 444.000 1556.000 444.000 L 1561.000 444.000 1561.000 412.500 L 1561.000 381.000 1556.000 381.000 L 1551.000 381.000 1551.000 393.014 M 1548.000 412.848 C 1549.928 414.278 1550.570 415.761 1550.804 419.335 C 1551.380 428.102 1546.357 434.273 1538.646 434.273 C 1535.317 434.273 1534.075 433.659 1531.319 430.651 C 1528.620 427.706 1528.000 426.214 1528.000 422.663 C 1528.000 411.463 1538.909 406.110 1548.000 412.848 "/></g>
<g fill="#005952FF" stroke="#005952FF">
<path d="M 1189.000 512.000 L 1189.000 541.000 1194.500 541.000 L 1200.000 541.000 1200.000 532.488 L 1200.000 523.976 1204.250 524.738 C 1216.702 526.970 1226.177 523.945 1231.113 516.160 C 1233.606 512.230 1234.000 510.627 1234.000 504.417 C 1234.000 497.957 1233.670 496.738 1230.750 492.419 C 1225.344 484.424 1221.427 483.062 1203.750 483.028 L 1189.000 483.000 1189.000 512.000 M 1218.889 496.560 C 1222.766 499.823 1223.764 504.588 1221.548 509.258 C 1218.842 514.960 1213.519 516.572 1203.750 514.648 L 1200.000 513.909 1200.000 503.955 L 1200.000 494.000 1207.923 494.000 C 1214.966 494.000 1216.185 494.285 1218.889 496.560 "/></g>
<g fill="#005952FF" stroke="#005952FF">
<path d="M 1294.013 595.185 C 1288.224 598.172 1284.198 604.000 1283.079 611.013 C 1281.313 622.074 1285.219 632.989 1292.246 636.631 C 1300.636 640.979 1307.767 640.200 1313.486 634.312 L 1317.000 630.693 1317.000 634.347 L 1317.000 638.000 1322.500 638.000 L 1328.000 638.000 1328.000 616.000 L 1328.000 594.000 1322.500 594.000 C 1317.292 594.000 1317.000 594.133 1317.000 596.514 L 1317.000 599.028 1312.940 596.341 C 1307.206 592.547 1299.980 592.105 1294.013 595.185 M 1313.102 606.284 C 1316.111 608.306 1316.531 609.137 1316.773 613.534 C 1317.135 620.131 1314.666 624.930 1309.652 627.379 C 1306.341 628.996 1305.254 629.093 1301.854 628.075 C 1292.785 625.357 1291.130 611.225 1299.217 605.561 C 1302.526 603.243 1309.086 603.584 1313.102 606.284 "/></g>
<g fill="#005952FF" stroke="#005952FF">
<path d="M 1294.204 401.071 C 1286.281 405.098 1282.826 411.650 1282.797 422.705 C 1282.760 436.602 1290.076 445.000 1302.218 445.000 C 1307.656 445.000 1308.344 444.725 1312.522 440.873 L 1317.000 436.745 1317.000 440.373 L 1317.000 444.000 1322.500 444.000 L 1328.000 444.000 1328.000 422.000 L 1328.000 400.000 1322.500 400.000 C 1317.292 400.000 1317.000 400.133 1317.000 402.514 L 1317.000 405.028 1312.940 402.341 C 1307.322 398.624 1299.996 398.127 1294.204 401.071 M 1313.750 412.660 C 1316.582 414.788 1317.000 415.686 1317.000 419.650 C 1317.000 425.031 1314.617 430.550 1311.376 432.673 C 1308.466 434.580 1302.853 434.794 1299.721 433.118 C 1291.544 428.742 1292.531 414.302 1301.270 410.471 C 1305.274 408.715 1309.481 409.453 1313.750 412.660 "/></g>
<g fill="#005952FF" stroke="#005952FF">
<path d="M 1339.204 304.128 C 1331.584 307.900 1328.000 314.794 1328.000 325.681 C 1328.000 339.230 1335.553 348.008 1347.200 347.993 C 1352.831 347.986 1356.932 346.028 1360.195 341.787 L 1361.956 339.500 1361.978 343.250 L 1362.000 347.000 1367.500 347.000 L 1373.000 347.000 1373.000 325.000 L 1373.000 303.000 1367.500 303.000 C 1362.204 303.000 1362.000 303.099 1362.000 305.674 L 1362.000 308.349 1359.750 306.241 C 1354.733 301.542 1346.202 300.664 1339.204 304.128 M 1359.597 316.091 C 1364.045 320.270 1362.152 331.888 1356.410 335.651 C 1352.056 338.504 1346.408 337.870 1342.645 334.106 C 1339.894 331.355 1339.500 330.284 1339.500 325.554 C 1339.500 321.632 1340.075 319.371 1341.594 317.323 C 1345.643 311.863 1354.454 311.260 1359.597 316.091 "/></g>
<g fill="#005952FF" stroke="#005952FF">
<path d="M 1686.500 497.326 C 1681.441 499.306 1678.481 501.799 1676.045 506.133 C 1673.245 511.116 1672.231 521.482 1673.931 527.763 C 1675.315 532.880 1680.256 538.791 1684.702 540.649 C 1691.996 543.697 1701.478 541.438 1705.501 535.695 C 1706.948 533.629 1707.000 533.684 1707.000 537.277 L 1707.000 541.000 1712.500 541.000 L 1718.000 541.000 1718.000 519.000 L 1718.000 497.000 1712.500 497.000 C 1707.214 497.000 1707.000 497.103 1707.000 499.655 C 1707.000 502.141 1706.886 502.207 1705.213 500.693 C 1700.529 496.454 1692.446 494.999 1686.500 497.326 M 1703.102 509.284 C 1706.136 511.323 1706.532 512.121 1706.801 516.736 C 1707.530 529.269 1696.115 536.275 1687.856 528.362 C 1682.721 523.442 1683.139 513.396 1688.659 509.054 C 1692.262 506.220 1698.696 506.322 1703.102 509.284 "/></g>
<g fill="#005952FF" stroke="#005952FF">
<path d="M 1680.500 691.503 C 1675.440 693.293 1669.486 699.586 1668.088 704.623 C 1665.564 713.714 1667.250 723.937 1672.203 729.578 C 1676.390 734.347 1679.941 736.000 1686.000 736.000 C 1691.810 736.000 1695.891 734.225 1698.912 730.385 L 1701.000 727.730 1701.000 731.365 L 1701.000 735.000 1706.500 735.000 L 1712.000 735.000 1712.000 713.000 L 1712.000 691.000 1706.500 691.000 C 1701.214 691.000 1701.000 691.103 1701.000 693.655 C 1701.000 696.216 1700.932 696.248 1699.066 694.560 C 1696.709 692.426 1690.399 690.088 1687.000 690.088 C 1685.625 690.088 1682.700 690.725 1680.500 691.503 M 1697.102 703.283 C 1700.034 705.253 1700.541 706.201 1700.801 710.193 C 1701.520 721.238 1692.379 729.192 1684.190 724.647 C 1676.547 720.406 1675.984 707.626 1683.217 702.561 C 1686.526 700.243 1693.086 700.585 1697.102 703.283 "/></g>
<g fill="#005952FF" stroke="#005952FF">
<path d="M 1574.500 497.834 C 1569.696 500.119 1566.601 503.315 1564.643 508.014 C 1559.495 520.370 1563.415 535.110 1573.173 540.088 C 1576.439 541.754 1578.611 542.124 1583.190 541.793 C 1588.368 541.418 1589.493 540.925 1593.019 537.482 L 1597.000 533.594 1597.000 537.297 L 1597.000 541.000 1602.000 541.000 L 1607.000 541.000 1607.000 519.000 L 1607.000 497.000 1602.000 497.000 C 1597.326 497.000 1597.000 497.164 1597.000 499.514 L 1597.000 502.028 1592.940 499.341 C 1587.586 495.799 1580.072 495.184 1574.500 497.834 M 1593.268 509.536 C 1596.595 511.797 1596.998 512.529 1596.978 516.286 C 1596.934 524.741 1591.401 532.000 1585.000 532.000 C 1579.062 532.000 1574.000 526.248 1574.000 519.500 C 1574.000 508.718 1584.258 503.413 1593.268 509.536 "/></g>
<g fill="#005952FF" stroke="#005952FF">
<path d="M 1060.013 498.185 C 1044.975 505.945 1044.441 532.573 1059.173 540.088 C 1062.439 541.754 1064.611 542.124 1069.190 541.793 C 1074.368 541.418 1075.493 540.925 1079.019 537.482 L 1083.000 533.594 1083.000 537.297 L 1083.000 541.000 1088.000 541.000 L 1093.000 541.000 1093.000 519.000 L 1093.000 497.000 1088.000 497.000 C 1083.326 497.000 1083.000 497.164 1083.000 499.514 L 1083.000 502.028 1078.940 499.341 C 1073.206 495.547 1065.980 495.105 1060.013 498.185 M 1078.505 509.003 C 1087.173 514.360 1081.417 532.000 1071.000 532.000 C 1067.612 532.000 1063.151 529.193 1061.517 526.033 C 1060.683 524.419 1060.000 521.007 1060.000 518.450 C 1060.000 514.495 1060.508 513.292 1063.400 510.400 C 1066.195 507.605 1067.552 507.000 1071.032 507.000 C 1073.521 507.000 1076.599 507.825 1078.505 509.003 "/></g>
<g fill="#005952FF" stroke="#005952FF">
<path d="M 950.685 497.017 C 941.955 499.637 937.000 507.640 937.000 519.119 C 937.000 532.947 944.230 542.000 955.273 542.000 C 961.011 542.000 963.914 540.920 967.047 537.619 C 970.229 534.266 971.000 534.341 971.000 538.000 C 971.000 540.933 971.111 541.000 976.000 541.000 L 981.000 541.000 981.000 519.000 L 981.000 497.000 976.000 497.000 C 971.667 497.000 971.000 497.267 971.000 499.000 C 971.000 501.503 971.063 501.509 965.404 498.500 C 960.603 495.947 955.845 495.468 950.685 497.017 M 967.102 509.283 C 970.048 511.263 970.540 512.191 970.804 516.268 C 971.184 522.146 968.744 527.575 964.580 530.114 C 956.422 535.089 948.000 529.163 948.000 518.450 C 948.000 514.495 948.508 513.292 951.400 510.400 C 954.248 507.552 955.522 507.000 959.252 507.000 C 962.229 507.000 964.830 507.756 967.102 509.283 "/></g>
<g fill="#005952FF" stroke="#005952FF">
<path d="M 1006.500 303.167 C 1005.400 303.775 1003.488 305.190 1002.250 306.311 L 1000.000 308.349 1000.000 305.674 C 1000.000 303.099 999.796 303.000 994.500 303.000 L 989.000 303.000 989.000 325.000 L 989.000 347.000 994.500 347.000 L 1000.000 347.000 1000.000 332.687 L 1000.000 318.374 1002.909 315.587 C 1006.896 311.767 1012.494 311.710 1015.716 315.456 C 1017.867 317.957 1018.000 318.954 1018.000 332.556 L 1018.000 347.000 1023.500 347.000 L 1029.000 347.000 1029.000 332.687 L 1029.000 318.374 1031.750 315.774 C 1033.263 314.344 1035.400 313.043 1036.500 312.884 C 1039.804 312.405 1043.875 313.897 1045.000 316.000 C 1045.582 317.087 1046.340 324.507 1046.685 332.488 L 1047.311 347.000 1052.156 347.000 L 1057.000 347.000 1056.998 330.250 C 1056.997 316.279 1056.707 312.931 1055.248 310.071 C 1052.954 305.571 1049.279 302.981 1044.224 302.303 C 1038.493 301.535 1035.566 302.494 1030.966 306.649 L 1026.983 310.248 1024.903 307.604 C 1023.759 306.150 1021.535 304.294 1019.961 303.480 C 1016.615 301.749 1009.368 301.581 1006.500 303.167 "/></g>
<g fill="#005952FF" stroke="#005952FF">
<path d="M 1456.096 691.104 C 1439.625 696.103 1433.633 715.823 1444.817 728.227 C 1449.797 733.751 1454.969 735.953 1463.000 735.969 C 1471.898 735.986 1478.686 732.180 1483.033 724.737 C 1485.801 719.997 1486.062 718.818 1485.779 712.313 C 1485.515 706.219 1485.009 704.474 1482.453 700.837 C 1476.665 692.602 1465.159 688.353 1456.096 691.104 M 1469.834 702.676 C 1471.117 703.490 1472.851 705.792 1473.686 707.792 C 1477.389 716.654 1471.603 726.000 1462.415 726.000 C 1458.500 726.000 1457.284 725.484 1454.400 722.600 C 1451.363 719.563 1451.000 718.617 1451.000 713.735 C 1451.000 709.645 1451.545 707.577 1453.165 705.517 C 1457.351 700.196 1464.106 699.044 1469.834 702.676 "/></g>
<g fill="#005952FF" stroke="#005952FF">
<path d="M 1423.000 609.000 L 1423.000 638.000 1429.000 638.000 L 1435.000 638.000 1435.000 625.972 L 1435.000 613.944 1448.750 614.222 L 1462.500 614.500 1462.782 626.250 L 1463.063 638.000 1468.532 638.000 L 1474.000 638.000 1474.000 609.000 L 1474.000 580.000 1468.532 580.000 L 1463.063 580.000 1462.782 591.750 L 1462.500 603.500 1448.750 603.778 L 1435.000 604.056 1435.000 592.028 L 1435.000 580.000 1429.000 580.000 L 1423.000 580.000 1423.000 609.000 "/></g>
<g fill="#005952FF" stroke="#005952FF">
<path d="M 1423.000 415.000 L 1423.000 444.000 1429.000 444.000 L 1435.000 444.000 1435.000 431.972 L 1435.000 419.944 1448.750 420.222 L 1462.500 420.500 1462.782 432.250 L 1463.063 444.000 1468.532 444.000 L 1474.000 444.000 1474.000 415.000 L 1474.000 386.000 1468.532 386.000 L 1463.063 386.000 1462.782 397.750 L 1462.500 409.500 1448.750 409.778 L 1435.000 410.056 1435.000 398.028 L 1435.000 386.000 1429.000 386.000 L 1423.000 386.000 1423.000 415.000 "/></g>
<g fill="#005952FF" stroke="#005952FF">
<path d="M 881.000 318.000 L 881.000 347.000 887.000 347.000 L 893.000 347.000 893.000 337.674 C 893.000 328.923 893.160 328.199 895.597 325.924 L 898.193 323.500 901.141 327.000 C 902.762 328.925 906.881 334.205 910.294 338.734 L 916.500 346.968 924.180 346.734 L 931.860 346.500 918.976 330.581 L 906.092 314.662 914.296 305.755 C 918.808 300.856 924.000 295.082 925.833 292.924 L 929.166 289.000 922.282 289.000 L 915.397 289.000 904.949 300.989 C 899.202 307.583 894.163 312.983 893.750 312.989 C 893.338 312.995 893.000 307.600 893.000 301.000 L 893.000 289.000 887.000 289.000 L 881.000 289.000 881.000 318.000 "/></g>
<g fill="#005952FF" stroke="#005952FF">
<path d="M 950.994 690.934 C 942.502 693.517 936.899 699.623 934.925 708.446 C 932.573 718.956 937.852 729.740 947.500 734.134 C 953.148 736.707 962.756 736.595 968.511 733.890 C 972.930 731.813 973.000 731.703 973.000 726.890 C 973.000 724.200 972.888 722.002 972.750 722.004 C 972.613 722.006 970.286 723.131 967.581 724.504 C 962.047 727.312 957.495 727.652 952.636 725.621 C 949.508 724.314 945.000 719.735 945.000 717.865 C 945.000 717.389 952.200 717.000 961.000 717.000 L 977.000 717.000 976.978 711.250 C 976.952 704.329 974.502 698.441 970.111 694.747 C 965.146 690.569 957.323 689.009 950.994 690.934 M 960.282 700.345 C 963.895 701.855 965.435 703.456 966.445 706.750 C 967.132 708.990 967.083 709.000 956.042 709.000 L 944.949 709.000 946.372 706.248 C 948.633 701.874 951.476 699.829 956.282 699.116 C 956.712 699.052 958.512 699.605 960.282 700.345 "/></g>
<g fill="#005952FF" stroke="#005952FF">
<path d="M 1562.625 691.469 C 1553.906 694.577 1548.044 703.434 1548.044 713.500 C 1548.044 723.350 1552.815 730.937 1561.218 734.447 C 1566.422 736.621 1576.489 736.415 1581.750 734.027 C 1585.927 732.131 1586.000 732.011 1586.000 727.095 L 1586.000 722.092 1580.750 724.536 C 1572.611 728.325 1566.331 727.618 1561.462 722.364 C 1556.757 717.288 1557.491 717.000 1575.129 717.000 L 1591.258 717.000 1590.556 710.793 C 1589.636 702.664 1588.079 699.155 1583.676 695.289 C 1577.857 690.180 1570.160 688.783 1562.625 691.469 M 1577.250 702.792 C 1578.763 704.212 1580.000 706.190 1580.000 707.187 C 1580.000 708.823 1578.972 709.000 1569.500 709.000 C 1562.929 709.000 1559.000 708.613 1559.000 707.965 C 1559.000 705.813 1562.520 701.682 1565.452 700.394 C 1569.398 698.660 1573.801 699.555 1577.250 702.792 "/></g>
<g fill="#005952FF" stroke="#005952FF">
<path d="M 947.880 304.794 C 940.697 308.546 936.973 314.473 936.266 323.274 C 935.854 328.410 936.176 330.609 937.915 334.541 C 940.684 340.801 942.425 342.671 948.217 345.608 C 954.614 348.852 963.768 348.912 970.038 345.750 C 974.376 343.563 974.508 343.355 974.801 338.292 L 975.102 333.084 970.801 335.467 C 962.173 340.246 954.415 339.659 949.533 333.857 C 944.787 328.217 945.291 328.000 963.142 328.000 L 979.285 328.000 978.657 321.988 C 977.995 315.661 975.492 309.657 972.320 306.788 C 966.314 301.357 956.061 300.520 947.880 304.794 M 964.581 313.461 C 965.784 314.249 967.246 316.268 967.832 317.947 L 968.896 321.000 957.948 321.000 C 951.927 321.000 947.000 320.753 947.000 320.450 C 947.000 320.148 947.704 318.539 948.565 316.875 C 951.383 311.425 958.997 309.802 964.581 313.461 "/></g>
<g fill="#005952FF" stroke="#005952FF">
<path d="M 1224.444 303.886 C 1212.131 309.479 1207.348 325.940 1214.618 337.700 C 1220.516 347.240 1234.661 350.983 1245.038 345.750 C 1249.376 343.563 1249.508 343.355 1249.801 338.292 L 1250.102 333.084 1245.801 335.443 C 1243.435 336.741 1240.075 338.099 1238.334 338.462 C 1233.638 339.441 1227.529 337.418 1224.573 333.904 C 1219.787 328.217 1220.281 328.000 1238.000 328.000 L 1254.000 328.000 1253.994 323.750 C 1253.982 314.256 1249.937 307.239 1242.541 303.880 C 1237.371 301.531 1229.623 301.534 1224.444 303.886 M 1239.581 313.461 C 1240.784 314.249 1242.246 316.268 1242.832 317.947 L 1243.896 321.000 1232.948 321.000 C 1226.927 321.000 1222.000 320.753 1222.000 320.450 C 1222.000 320.148 1222.704 318.539 1223.565 316.875 C 1226.383 311.425 1233.997 309.802 1239.581 313.461 "/></g>
<g fill="#005952FF" stroke="#005952FF">
<path d="M 1080.142 304.104 C 1075.404 306.509 1070.777 312.117 1068.941 317.678 C 1067.021 323.496 1068.143 333.106 1071.299 337.875 C 1075.698 344.522 1081.006 347.411 1089.622 347.846 C 1095.603 348.148 1097.746 347.817 1101.462 346.018 C 1105.935 343.853 1106.000 343.751 1106.000 338.890 L 1106.000 333.959 1102.203 335.896 C 1093.770 340.198 1086.244 339.456 1081.533 333.857 C 1076.787 328.217 1077.292 328.000 1095.138 328.000 L 1111.275 328.000 1110.602 322.250 C 1109.088 309.308 1102.755 302.800 1091.111 302.221 C 1085.824 301.958 1083.627 302.335 1080.142 304.104 M 1094.452 312.415 C 1097.864 313.841 1100.000 316.543 1100.000 319.434 C 1100.000 320.756 1098.363 321.000 1089.500 321.000 C 1083.725 321.000 1079.000 320.753 1079.000 320.450 C 1079.000 318.267 1082.683 313.608 1085.315 312.464 C 1089.377 310.697 1090.327 310.692 1094.452 312.415 "/></g>
<g fill="#005952FF" stroke="#005952FF">
<path d="M 1257.500 497.207 C 1238.142 503.973 1237.294 532.568 1256.218 540.451 C 1261.546 542.671 1270.149 542.422 1276.065 539.877 L 1281.000 537.754 1281.000 532.923 L 1281.000 528.092 1275.750 530.536 C 1269.746 533.331 1265.423 533.621 1260.490 531.560 C 1257.513 530.316 1253.015 525.023 1253.004 522.750 C 1253.002 522.338 1260.477 522.000 1269.615 522.000 L 1286.230 522.000 1285.520 516.315 C 1284.623 509.136 1283.869 507.186 1280.390 503.051 C 1275.230 496.919 1265.460 494.424 1257.500 497.207 M 1268.401 506.394 C 1271.779 507.806 1275.000 511.383 1275.000 513.723 C 1275.000 514.678 1272.354 515.000 1264.500 515.000 C 1253.226 515.000 1252.493 514.597 1255.628 510.120 C 1257.056 508.081 1262.047 505.151 1264.282 505.039 C 1264.712 505.018 1266.566 505.627 1268.401 506.394 "/></g>
<g fill="#005952FF" stroke="#005952FF">
<path d="M 1417.500 497.207 C 1402.618 502.409 1397.351 522.619 1407.844 534.258 C 1409.855 536.488 1413.300 539.132 1415.500 540.134 C 1421.048 542.661 1429.849 542.551 1436.065 539.877 L 1441.000 537.754 1441.000 532.932 L 1441.000 528.111 1435.401 530.674 C 1426.133 534.917 1417.329 532.623 1414.289 525.173 L 1412.994 522.000 1429.612 522.000 L 1446.230 522.000 1445.513 516.260 C 1444.317 506.688 1440.210 500.657 1432.768 497.548 C 1428.579 495.797 1421.955 495.649 1417.500 497.207 M 1428.401 506.394 C 1431.779 507.806 1435.000 511.383 1435.000 513.723 C 1435.000 514.678 1432.354 515.000 1424.500 515.000 C 1413.226 515.000 1412.493 514.597 1415.628 510.120 C 1417.056 508.081 1422.047 505.151 1424.282 505.039 C 1424.712 505.018 1426.566 505.627 1428.401 506.394 "/></g>
<g fill="#005952FF" stroke="#005952FF">
<path d="M 1073.000 412.500 L 1073.000 444.000 1078.500 444.000 L 1084.000 444.000 1084.000 437.674 C 1084.000 432.240 1084.348 431.022 1086.471 429.028 C 1089.481 426.200 1089.681 426.340 1097.000 436.391 L 1102.500 443.944 1109.341 443.972 L 1116.183 444.000 1111.278 437.750 C 1108.580 434.313 1104.178 428.670 1101.495 425.211 L 1096.618 418.921 1106.039 409.461 L 1115.460 400.000 1108.828 400.000 L 1102.196 400.000 1093.098 409.613 L 1084.000 419.226 1084.000 400.113 L 1084.000 381.000 1078.500 381.000 L 1073.000 381.000 1073.000 412.500 "/></g>
<g fill="#005952FF" stroke="#005952FF">
<path d="M 1206.000 703.500 L 1206.000 735.000 1211.500 735.000 L 1217.000 735.000 1217.000 729.187 C 1217.000 724.033 1217.340 723.048 1220.002 720.498 C 1223.452 717.192 1222.321 716.373 1230.722 728.263 L 1235.500 735.026 1242.291 734.763 L 1249.082 734.500 1240.399 723.500 C 1235.623 717.450 1231.253 711.911 1230.686 711.191 C 1229.910 710.203 1231.965 707.565 1239.059 700.441 L 1248.460 691.000 1242.080 691.000 L 1235.699 691.000 1226.398 700.750 L 1217.096 710.500 1217.048 691.250 L 1217.000 672.000 1211.500 672.000 L 1206.000 672.000 1206.000 703.500 "/></g>
<g fill="#005952FF" stroke="#005952FF">
<path d="M 1073.000 606.500 L 1073.000 638.000 1078.500 638.000 L 1084.000 638.000 1084.000 631.674 C 1084.000 626.240 1084.348 625.022 1086.471 623.028 C 1089.509 620.173 1089.856 620.419 1097.092 630.536 L 1102.485 638.078 1109.116 637.789 L 1115.746 637.500 1107.790 627.500 C 1094.974 611.391 1095.186 614.359 1106.070 603.430 L 1115.460 594.000 1108.827 594.000 L 1102.193 594.000 1093.124 603.750 L 1084.054 613.500 1084.027 594.250 L 1084.000 575.000 1078.500 575.000 L 1073.000 575.000 1073.000 606.500 "/></g>
<g fill="#005952FF" stroke="#005952FF">
<path d="M 980.250 595.566 C 977.913 596.967 976.000 598.538 976.000 599.057 C 976.000 599.576 975.550 600.000 975.000 600.000 C 974.450 600.000 974.000 598.650 974.000 597.000 C 974.000 594.030 973.944 594.000 968.500 594.000 L 963.000 594.000 963.000 616.000 L 963.000 638.000 968.500 638.000 L 974.000 638.000 974.000 624.104 L 974.000 610.207 977.535 607.104 C 982.249 602.964 987.885 602.767 990.927 606.635 C 992.806 609.023 993.000 610.616 993.000 623.635 L 993.000 638.000 998.583 638.000 L 1004.165 638.000 1003.833 620.570 C 1003.531 604.748 1003.307 602.881 1001.408 600.320 C 995.820 592.786 987.869 591.000 980.250 595.566 "/></g>
<g fill="#005952FF" stroke="#005952FF">
<path d="M 1139.500 303.164 C 1138.400 303.771 1136.263 305.417 1134.750 306.821 L 1132.000 309.374 1132.000 306.187 L 1132.000 303.000 1126.500 303.000 L 1121.000 303.000 1121.000 325.000 L 1121.000 347.000 1126.500 347.000 L 1132.000 347.000 1132.000 332.901 L 1132.000 318.802 1135.106 315.901 C 1139.303 311.980 1144.944 311.644 1148.500 315.104 C 1150.292 316.847 1150.534 318.610 1150.822 332.025 L 1151.144 347.000 1156.673 347.000 L 1162.202 347.000 1161.851 330.250 C 1161.459 311.531 1160.600 308.669 1154.048 304.253 C 1150.373 301.777 1143.013 301.226 1139.500 303.164 "/></g>
<g fill="#005952FF" stroke="#005952FF">
<path d="M 980.250 401.507 C 977.913 402.941 976.000 404.538 976.000 405.057 C 976.000 405.576 975.550 406.000 975.000 406.000 C 974.450 406.000 974.000 404.650 974.000 403.000 C 974.000 400.030 973.944 400.000 968.500 400.000 L 963.000 400.000 963.000 422.000 L 963.000 444.000 968.500 444.000 L 974.000 444.000 974.000 430.196 L 974.000 416.392 977.250 413.330 C 981.100 409.702 984.118 408.797 987.930 410.126 C 992.223 411.622 993.000 414.676 993.000 430.047 L 993.000 444.000 998.583 444.000 L 1004.165 444.000 1003.833 426.570 C 1003.532 410.824 1003.301 408.875 1001.438 406.382 C 998.059 401.861 994.435 399.745 989.324 399.311 C 985.424 398.979 983.686 399.400 980.250 401.507 "/></g>
<g fill="#005952FF" stroke="#005952FF">
<path d="M 1194.500 594.515 C 1192.850 595.405 1190.488 597.081 1189.250 598.241 L 1187.000 600.349 1187.000 597.174 L 1187.000 594.000 1181.500 594.000 L 1176.000 594.000 1176.000 616.000 L 1176.000 638.000 1181.500 638.000 L 1187.000 638.000 1187.000 623.551 L 1187.000 609.102 1190.344 606.551 C 1194.515 603.370 1200.126 603.126 1203.000 606.000 C 1204.822 607.822 1205.000 609.333 1205.000 623.000 L 1205.000 638.000 1210.500 638.000 L 1216.000 638.000 1215.998 621.250 C 1215.997 602.893 1215.208 599.627 1209.824 595.681 C 1206.203 593.027 1198.365 592.431 1194.500 594.515 "/></g>
<g fill="#005952FF" stroke="#005952FF">
<path d="M 1475.000 497.066 C 1473.625 497.643 1471.263 499.298 1469.750 500.744 L 1467.000 503.374 1467.000 500.187 L 1467.000 497.000 1461.500 497.000 L 1456.000 497.000 1456.000 519.000 L 1456.000 541.000 1461.500 541.000 L 1467.000 541.000 1467.000 526.589 L 1467.000 512.178 1470.077 509.589 C 1473.961 506.321 1480.044 506.044 1483.000 509.000 C 1484.822 510.822 1485.000 512.333 1485.000 526.000 L 1485.000 541.000 1490.500 541.000 L 1496.000 541.000 1496.000 524.401 C 1496.000 505.960 1495.205 502.706 1489.749 498.821 C 1486.325 496.383 1478.773 495.484 1475.000 497.066 "/></g>
<g fill="#005952FF" stroke="#005952FF">
<path d="M 1404.000 304.091 C 1402.075 305.237 1399.938 306.896 1399.250 307.778 C 1398.176 309.156 1398.000 308.933 1398.000 306.191 L 1398.000 303.000 1392.500 303.000 L 1387.000 303.000 1387.000 325.000 L 1387.000 347.000 1392.500 347.000 L 1398.000 347.000 1398.000 332.674 C 1398.000 319.109 1398.119 318.237 1400.250 316.241 C 1405.172 311.630 1412.607 311.529 1415.021 316.039 C 1415.559 317.045 1416.000 324.423 1416.000 332.434 L 1416.000 347.000 1421.583 347.000 L 1427.165 347.000 1426.833 329.750 C 1426.540 314.587 1426.254 312.077 1424.466 309.000 C 1420.577 302.308 1410.896 299.986 1404.000 304.091 "/></g>
<g fill="#005952FF" stroke="#005952FF">
<path d="M 1315.000 497.121 C 1313.625 497.667 1311.263 499.298 1309.750 500.744 L 1307.000 503.374 1307.000 500.187 L 1307.000 497.000 1301.500 497.000 L 1296.000 497.000 1296.000 519.000 L 1296.000 541.000 1301.500 541.000 L 1307.000 541.000 1307.000 526.589 L 1307.000 512.178 1310.077 509.589 C 1313.961 506.321 1320.044 506.044 1323.000 509.000 C 1324.822 510.822 1325.000 512.333 1325.000 526.000 L 1325.000 541.000 1330.500 541.000 L 1336.000 541.000 1336.000 524.712 C 1336.000 509.787 1335.812 508.056 1333.750 504.036 C 1330.218 497.149 1322.287 494.224 1315.000 497.121 "/></g>
<g fill="#005952FF" stroke="#005952FF">
<path d="M 1194.500 400.515 C 1192.850 401.405 1190.488 403.081 1189.250 404.241 L 1187.000 406.349 1187.000 403.174 L 1187.000 400.000 1181.500 400.000 L 1176.000 400.000 1176.000 422.000 L 1176.000 444.000 1181.500 444.000 L 1187.000 444.000 1187.000 429.674 C 1187.000 416.109 1187.119 415.237 1189.250 413.241 C 1193.812 408.967 1199.323 408.398 1203.250 411.796 C 1204.775 413.115 1205.000 415.284 1205.000 428.655 L 1205.000 444.000 1210.500 444.000 L 1216.000 444.000 1215.998 427.250 C 1215.997 408.893 1215.208 405.627 1209.824 401.681 C 1206.203 399.027 1198.365 398.431 1194.500 400.515 "/></g>
<g fill="#005952FF" stroke="#005952FF">
<path d="M 1751.000 497.121 C 1749.625 497.667 1747.263 499.298 1745.750 500.744 L 1743.000 503.374 1743.000 500.187 L 1743.000 497.000 1737.500 497.000 L 1732.000 497.000 1732.000 519.000 L 1732.000 541.000 1737.500 541.000 L 1743.000 541.000 1743.000 526.589 L 1743.000 512.178 1746.077 509.589 C 1749.961 506.321 1756.044 506.044 1759.000 509.000 C 1760.822 510.822 1761.000 512.333 1761.000 526.000 L 1761.000 541.000 1766.500 541.000 L 1772.000 541.000 1771.978 524.750 C 1771.959 510.821 1771.678 507.888 1770.012 504.216 C 1767.028 497.642 1758.084 494.304 1751.000 497.121 "/></g>
<g fill="#005952FF" stroke="#005952FF">
<path d="M 1285.000 682.000 L 1285.000 687.000 1290.000 687.000 L 1295.000 687.000 1295.000 706.000 L 1295.000 725.000 1290.000 725.000 L 1285.000 725.000 1285.000 730.000 L 1285.000 735.000 1301.500 735.000 L 1318.000 735.000 1318.000 730.000 L 1318.000 725.000 1312.500 725.000 L 1307.000 725.000 1307.000 706.000 L 1307.000 687.000 1312.500 687.000 L 1318.000 687.000 1318.000 682.000 L 1318.000 677.000 1301.500 677.000 L 1285.000 677.000 1285.000 682.000 "/></g>
<g fill="#005952FF" stroke="#005952FF">
<path d="M 1575.000 610.162 C 1575.000 625.573 1575.116 626.521 1577.486 630.566 C 1581.083 636.705 1586.955 639.341 1595.904 638.836 C 1601.171 638.538 1603.626 637.851 1606.704 635.814 C 1613.269 631.470 1614.377 627.911 1614.823 609.750 L 1615.210 594.000 1609.105 594.000 L 1603.000 594.000 1603.000 608.777 C 1603.000 625.401 1602.329 627.473 1596.593 628.549 C 1592.843 629.252 1587.643 627.117 1586.621 624.455 C 1586.280 623.565 1586.000 616.348 1586.000 608.418 L 1586.000 594.000 1580.500 594.000 L 1575.000 594.000 1575.000 610.162 "/></g>
<g fill="#005952FF" stroke="#005952FF">
<path d="M 1516.007 691.593 C 1514.086 692.426 1511.499 694.062 1510.257 695.228 L 1508.000 697.349 1508.000 694.174 L 1508.000 691.000 1502.500 691.000 L 1497.000 691.000 1497.000 713.000 L 1497.000 735.000 1502.500 735.000 L 1508.000 735.000 1508.000 720.901 L 1508.000 706.802 1511.106 703.901 C 1513.294 701.857 1515.234 701.000 1517.671 701.000 C 1525.558 701.000 1527.000 704.269 1527.000 722.149 L 1527.000 735.000 1532.000 735.000 L 1537.000 735.000 1536.998 718.250 C 1536.997 698.452 1536.204 695.864 1529.038 692.250 C 1523.861 689.639 1520.861 689.488 1516.007 691.593 "/></g>
<g fill="#005952FF" stroke="#005952FF">
<path d="M 1575.000 416.050 C 1575.000 427.886 1575.369 432.808 1576.405 434.800 C 1583.239 447.935 1604.900 448.623 1611.966 435.930 C 1614.232 431.860 1614.465 430.219 1614.836 415.750 L 1615.239 400.000 1609.119 400.000 L 1603.000 400.000 1603.000 414.566 C 1603.000 422.577 1602.567 429.940 1602.038 430.929 C 1600.729 433.374 1595.587 435.364 1592.547 434.601 C 1591.177 434.257 1589.143 432.996 1588.028 431.799 C 1586.180 429.816 1586.000 428.308 1586.000 414.811 L 1586.000 400.000 1580.500 400.000 L 1575.000 400.000 1575.000 416.050 "/></g>
<g fill="#005952FF" stroke="#005952FF">
<path d="M 1351.500 691.348 C 1349.850 692.106 1347.643 693.688 1346.595 694.863 C 1343.991 697.784 1343.000 697.546 1343.000 694.000 C 1343.000 691.067 1342.889 691.000 1338.000 691.000 L 1333.000 691.000 1333.000 713.000 L 1333.000 735.000 1338.000 735.000 L 1343.000 735.000 1343.000 721.400 L 1343.000 707.800 1346.400 704.400 C 1350.882 699.918 1356.743 699.586 1359.927 703.635 C 1361.806 706.023 1362.000 707.616 1362.000 720.635 L 1362.000 735.000 1367.583 735.000 L 1373.165 735.000 1372.833 717.570 C 1372.471 698.629 1372.131 697.427 1365.802 692.702 C 1362.503 690.239 1355.381 689.565 1351.500 691.348 "/></g>
<g fill="#005952FF" stroke="#005952FF">
<path d="M 1358.250 595.566 C 1355.913 596.967 1354.000 598.538 1354.000 599.057 C 1354.000 599.576 1353.550 600.000 1353.000 600.000 C 1352.450 600.000 1352.000 598.650 1352.000 597.000 C 1352.000 594.067 1351.889 594.000 1347.000 594.000 L 1342.000 594.000 1342.000 616.000 L 1342.000 638.000 1347.000 638.000 L 1352.000 638.000 1352.000 624.104 L 1352.000 610.207 1355.535 607.104 C 1360.249 602.964 1365.885 602.767 1368.927 606.635 C 1370.806 609.023 1371.000 610.616 1371.000 623.635 L 1371.000 638.000 1376.584 638.000 L 1382.169 638.000 1381.834 621.250 C 1381.540 606.521 1381.252 604.078 1379.446 601.003 C 1374.750 593.010 1366.182 590.812 1358.250 595.566 "/></g>
<g fill="#005952FF" stroke="#005952FF">
<path d="M 1125.500 497.604 C 1123.850 498.506 1121.488 500.167 1120.250 501.296 L 1118.000 503.349 1118.000 500.174 C 1118.000 497.032 1117.950 497.000 1113.000 497.000 L 1108.000 497.000 1108.000 519.000 L 1108.000 541.000 1113.000 541.000 L 1118.000 541.000 1118.000 527.104 L 1118.000 513.207 1121.535 510.104 C 1126.249 505.964 1131.885 505.767 1134.927 509.635 C 1136.806 512.023 1137.000 513.616 1137.000 526.635 L 1137.000 541.000 1142.615 541.000 L 1148.231 541.000 1147.846 524.238 C 1147.427 505.965 1146.621 503.036 1140.824 498.715 C 1137.227 496.033 1129.412 495.467 1125.500 497.604 "/></g>
<g fill="#005952FF" stroke="#005952FF">
<path d="M 1358.250 401.566 C 1355.913 402.967 1354.000 404.538 1354.000 405.057 C 1354.000 405.576 1353.550 406.000 1353.000 406.000 C 1352.450 406.000 1352.000 404.650 1352.000 403.000 C 1352.000 400.067 1351.889 400.000 1347.000 400.000 L 1342.000 400.000 1342.000 422.000 L 1342.000 444.000 1347.000 444.000 L 1352.000 444.000 1352.000 430.196 L 1352.000 416.392 1355.504 412.996 C 1360.107 408.534 1365.132 408.289 1368.630 412.356 C 1370.887 414.980 1371.000 415.801 1371.000 429.556 L 1371.000 444.000 1376.500 444.000 L 1382.000 444.000 1381.994 429.250 C 1381.991 421.138 1381.498 412.700 1380.899 410.500 C 1378.118 400.299 1367.411 396.076 1358.250 401.566 "/></g>
<g fill="#005952FF" stroke="#005952FF">
<path d="M 1043.000 706.532 C 1043.000 723.533 1043.694 726.574 1048.627 731.186 C 1052.461 734.771 1056.028 736.000 1062.597 736.000 C 1071.821 736.000 1077.873 732.569 1081.119 725.500 C 1082.643 722.183 1082.960 718.898 1082.978 706.250 L 1083.000 691.000 1077.592 691.000 L 1072.183 691.000 1071.842 706.088 L 1071.500 721.176 1068.694 723.588 C 1064.814 726.924 1060.587 726.741 1056.923 723.077 L 1054.000 720.154 1054.000 705.577 L 1054.000 691.000 1048.500 691.000 L 1043.000 691.000 1043.000 706.532 "/></g>
<g fill="#005952FF" stroke="#005952FF">
<path d="M 1123.044 608.750 C 1123.102 628.317 1124.695 632.761 1133.210 637.106 C 1137.671 639.383 1147.544 639.651 1152.282 637.623 C 1156.174 635.958 1160.489 631.516 1161.936 627.685 C 1162.521 626.137 1163.000 617.924 1163.000 609.435 L 1163.000 594.000 1157.500 594.000 L 1152.000 594.000 1152.000 608.577 L 1152.000 623.154 1149.077 626.077 C 1145.413 629.741 1141.186 629.924 1137.306 626.588 L 1134.500 624.176 1134.158 609.088 L 1133.817 594.000 1128.408 594.000 L 1123.000 594.000 1123.044 608.750 "/></g>
<g fill="#005952FF" stroke="#005952FF">
<path d="M 1123.044 414.750 C 1123.103 434.530 1124.795 439.122 1133.500 443.119 C 1141.436 446.763 1153.287 444.769 1158.683 438.882 C 1162.371 434.859 1163.000 431.443 1163.000 415.435 L 1163.000 400.000 1157.500 400.000 L 1152.000 400.000 1152.000 414.577 L 1152.000 429.154 1149.077 432.077 C 1145.981 435.173 1143.763 435.621 1139.517 434.006 C 1135.223 432.374 1134.000 427.723 1134.000 413.032 L 1134.000 400.000 1128.500 400.000 L 1123.000 400.000 1123.044 414.750 "/></g>
<g fill="#005952FF" stroke="#005952FF">
<path d="M 881.000 415.000 L 881.000 444.000 901.500 444.000 L 922.000 444.000 922.000 438.500 L 922.000 433.000 907.500 433.000 L 893.000 433.000 893.000 409.500 L 893.000 386.000 887.000 386.000 L 881.000 386.000 881.000 415.000 "/></g>
<g fill="#005952FF" stroke="#005952FF">
<path d="M 881.000 609.000 L 881.000 638.000 901.500 638.000 L 922.000 638.000 922.000 633.000 L 922.000 628.000 907.500 628.000 L 893.000 628.000 893.000 604.000 L 893.000 580.000 887.000 580.000 L 881.000 580.000 881.000 609.000 "/></g>
<g fill="#005952FF" stroke="#005952FF">
<path d="M 1608.500 691.446 C 1602.416 693.683 1599.000 698.046 1599.000 703.582 C 1599.000 711.127 1601.199 713.849 1609.500 716.581 C 1618.634 719.587 1620.825 722.032 1617.429 725.429 C 1615.246 727.611 1607.491 727.406 1602.250 725.027 L 1598.000 723.098 1598.000 727.598 C 1598.000 731.923 1598.165 732.173 1602.250 734.027 C 1607.444 736.385 1617.836 736.653 1621.931 734.536 C 1630.068 730.328 1632.728 720.574 1627.236 715.082 C 1625.715 713.561 1622.003 711.513 1618.986 710.530 C 1610.530 707.776 1608.192 704.951 1611.571 701.571 C 1613.604 699.539 1621.157 699.513 1625.050 701.526 L 1628.000 703.051 1628.000 698.186 C 1628.000 693.948 1627.673 693.172 1625.462 692.165 C 1621.134 690.193 1612.862 689.842 1608.500 691.446 "/></g>
<g fill="#005952FF" stroke="#005952FF">
<path d="M 1181.094 294.161 C 1179.599 298.449 1175.317 303.899 1172.397 305.229 C 1170.687 306.008 1170.000 307.135 1170.000 309.161 C 1170.000 311.798 1170.280 312.000 1173.926 312.000 L 1177.852 312.000 1178.176 326.579 L 1178.500 341.159 1182.235 344.579 C 1185.551 347.616 1186.595 348.000 1191.535 348.000 C 1194.595 348.000 1198.427 347.313 1200.050 346.474 C 1202.665 345.122 1203.000 344.429 1203.000 340.367 C 1203.000 336.587 1202.721 335.893 1201.407 336.397 C 1194.993 338.858 1190.873 338.212 1189.171 334.477 C 1188.527 333.062 1188.000 327.429 1188.000 321.953 L 1188.000 312.000 1195.000 312.000 L 1202.000 312.000 1202.000 307.500 L 1202.000 303.000 1195.000 303.000 L 1188.000 303.000 1188.000 297.000 C 1188.000 291.045 1187.978 291.000 1185.098 291.000 C 1182.739 291.000 1181.989 291.592 1181.094 294.161 "/></g>
<g fill="#005952FF" stroke="#005952FF">
<path d="M 1152.000 703.500 L 1152.000 735.000 1157.500 735.000 L 1163.000 735.000 1163.000 703.500 L 1163.000 672.000 1157.500 672.000 L 1152.000 672.000 1152.000 703.500 "/></g>
<g fill="#005952FF" stroke="#005952FF">
<path d="M 1621.667 478.667 C 1621.300 479.033 1621.000 493.208 1621.000 510.167 L 1621.000 541.000 1626.500 541.000 L 1632.000 541.000 1632.000 509.500 L 1632.000 478.000 1627.167 478.000 C 1624.508 478.000 1622.033 478.300 1621.667 478.667 "/></g>
<g fill="#005952FF" stroke="#005952FF">
<path d="M 1692.990 385.750 C 1692.984 386.163 1690.284 399.294 1686.990 414.932 C 1683.695 430.570 1681.000 443.507 1681.000 443.682 C 1681.000 443.857 1683.430 444.000 1686.400 444.000 L 1691.801 444.000 1692.908 439.250 C 1695.319 428.915 1704.000 387.440 1704.000 386.258 C 1704.000 385.400 1702.252 385.000 1698.500 385.000 C 1695.475 385.000 1692.995 385.338 1692.990 385.750 "/></g>
<g fill="#005952FF" stroke="#005952FF">
<path d="M 1283.500 303.102 C 1282.400 303.703 1280.044 305.838 1278.265 307.847 L 1275.030 311.500 1275.015 307.250 L 1275.000 303.000 1270.000 303.000 L 1265.000 303.000 1265.000 325.000 L 1265.000 347.000 1270.000 347.000 L 1275.000 347.000 1275.000 334.503 L 1275.000 322.006 1278.692 317.919 C 1282.177 314.062 1282.656 313.852 1287.234 314.166 L 1292.083 314.500 1291.792 308.500 C 1291.506 302.628 1291.436 302.495 1288.500 302.255 C 1286.850 302.121 1284.600 302.502 1283.500 303.102 "/></g>
<g fill="#005952FF" stroke="#005952FF">
<path d="M 1638.000 695.500 C 1638.000 699.976 1638.019 700.000 1641.500 700.000 L 1645.000 700.000 1645.000 717.500 L 1645.000 735.000 1650.500 735.000 L 1656.000 735.000 1656.000 713.000 L 1656.000 691.000 1647.000 691.000 L 1638.000 691.000 1638.000 695.500 "/></g>
<g fill="#005952FF" stroke="#005952FF">
<path d="M 1174.000 695.500 C 1174.000 699.976 1174.019 700.000 1177.500 700.000 L 1181.000 700.000 1181.000 717.500 L 1181.000 735.000 1186.500 735.000 L 1192.000 735.000 1192.000 713.000 L 1192.000 691.000 1183.000 691.000 L 1174.000 691.000 1174.000 695.500 "/></g>
<g fill="#005952FF" stroke="#005952FF">
<path d="M 1644.000 501.500 C 1644.000 505.976 1644.019 506.000 1647.500 506.000 L 1651.000 506.000 1651.000 523.500 L 1651.000 541.000 1656.500 541.000 L 1662.000 541.000 1662.000 519.000 L 1662.000 497.000 1653.000 497.000 L 1644.000 497.000 1644.000 501.500 "/></g>
<g fill="#005952FF" stroke="#005952FF">
<path d="M 1299.000 307.500 C 1299.000 311.976 1299.019 312.000 1302.500 312.000 L 1306.000 312.000 1306.000 329.500 L 1306.000 347.000 1311.500 347.000 L 1317.000 347.000 1317.000 325.000 L 1317.000 303.000 1308.000 303.000 L 1299.000 303.000 1299.000 307.500 "/></g>
<g fill="#005952FF" stroke="#005952FF">
<path d="M 1487.000 598.440 C 1487.000 602.848 1487.026 602.881 1490.750 603.190 L 1494.500 603.500 1494.774 620.750 L 1495.047 638.000 1500.024 638.000 L 1505.000 638.000 1505.000 616.000 L 1505.000 594.000 1496.000 594.000 L 1487.000 594.000 1487.000 598.440 "/></g>
<g fill="#005952FF" stroke="#005952FF">
<path d="M 1487.000 404.500 L 1487.000 409.000 1491.000 409.000 L 1495.000 409.000 1495.000 426.500 L 1495.000 444.000 1500.000 444.000 L 1505.000 444.000 1505.000 422.000 L 1505.000 400.000 1496.000 400.000 L 1487.000 400.000 1487.000 404.500 "/></g>
<g fill="#005952FF" stroke="#005952FF">
<path d="M 932.000 598.500 C 932.000 602.976 932.019 603.000 935.500 603.000 L 939.000 603.000 939.000 620.500 L 939.000 638.000 944.000 638.000 L 949.000 638.000 949.000 616.000 L 949.000 594.000 940.500 594.000 L 932.000 594.000 932.000 598.500 "/></g>
<g fill="#005952FF" stroke="#005952FF">
<path d="M 932.000 404.500 C 932.000 408.976 932.019 409.000 935.500 409.000 L 939.000 409.000 939.000 426.500 L 939.000 444.000 944.000 444.000 L 949.000 444.000 949.000 422.000 L 949.000 400.000 940.500 400.000 L 932.000 400.000 932.000 404.500 "/></g>
<g fill="#005952FF" stroke="#005952FF">
<path d="M 1644.189 670.039 C 1641.016 672.995 1641.231 678.250 1644.635 680.927 C 1649.554 684.797 1655.406 682.543 1656.609 676.316 C 1657.866 669.805 1649.162 665.406 1644.189 670.039 "/></g>
<g fill="#005952FF" stroke="#005952FF">
<path d="M 1493.455 379.455 C 1492.105 380.805 1491.000 382.583 1491.000 383.407 C 1491.000 386.217 1493.216 389.777 1495.657 390.890 C 1499.084 392.451 1500.359 392.292 1503.365 389.927 C 1505.296 388.409 1506.000 386.939 1506.000 384.427 C 1506.000 377.495 1498.419 374.490 1493.455 379.455 "/></g>
<g fill="#005952FF" stroke="#005952FF">
<path d="M 1180.343 670.566 C 1178.273 672.636 1177.895 673.748 1178.391 676.316 C 1179.122 680.099 1182.275 683.000 1185.656 683.000 C 1188.857 683.000 1193.000 678.768 1193.000 675.500 C 1193.000 672.166 1188.834 668.000 1185.500 668.000 C 1184.052 668.000 1181.777 669.132 1180.343 670.566 "/></g>
<g fill="#005952FF" stroke="#005952FF">
<path d="M 1650.189 476.039 C 1648.790 477.342 1648.000 479.271 1648.000 481.384 C 1648.000 489.051 1658.706 491.331 1661.890 484.343 C 1663.533 480.735 1663.268 479.177 1660.545 476.455 C 1657.527 473.436 1653.170 473.261 1650.189 476.039 "/></g>
<g fill="#005952FF" stroke="#005952FF">
<path d="M 1494.153 572.750 C 1493.016 573.713 1491.795 575.726 1491.441 577.225 C 1490.924 579.409 1491.396 580.550 1493.821 582.975 C 1497.377 586.530 1499.754 586.768 1503.365 583.927 C 1505.233 582.458 1505.996 580.930 1505.985 578.677 C 1505.967 574.940 1505.273 573.706 1502.316 572.150 C 1499.228 570.524 1496.551 570.721 1494.153 572.750 "/></g>
<g fill="#005952FF" stroke="#005952FF">
<path d="M 938.000 379.000 C 935.022 381.978 935.333 387.330 938.635 389.927 C 940.084 391.067 942.048 392.000 943.000 392.000 C 943.952 392.000 945.916 391.067 947.365 389.927 C 952.649 385.771 949.687 377.000 943.000 377.000 C 941.333 377.000 939.111 377.889 938.000 379.000 "/></g>
<g fill="#005952FF" stroke="#005952FF">
<path d="M 1305.189 282.039 C 1302.621 284.431 1302.349 288.626 1304.557 291.777 C 1306.914 295.144 1313.164 294.879 1315.984 291.293 C 1321.347 284.475 1311.570 276.094 1305.189 282.039 "/></g>
<g fill="#005952FF" stroke="#005952FF">
<path d="M 939.500 572.195 C 936.702 573.781 936.033 575.027 936.015 578.677 C 935.999 582.092 939.726 586.000 943.000 586.000 C 946.274 586.000 950.001 582.092 949.985 578.677 C 949.967 574.940 949.273 573.706 946.316 572.150 C 943.614 570.728 942.070 570.738 939.500 572.195 "/></g>
</svg>
