<?xml version="1.0" encoding="utf-8"?>
<!DOCTYPE svg PUBLIC "-//W3C//DTD SVG 20010904//EN" "http://www.w3.org/TR/2001/REC-SVG-20010904/DTD/svg10.dtd">
<svg version="1.0" xmlns="http://www.w3.org/2000/svg" width="2002pt" height="748pt" viewBox="0 0 2002 748" style="" preserveAspectRatio="xMidYMid meet">
<g fill="#005952FF" stroke="#005952FF">
<path d="M 302.248 250.250 C 301.657 251.488 297.953 256.325 294.015 261.000 C 290.077 265.675 285.425 272.200 283.677 275.500 C 280.690 281.141 280.500 282.129 280.500 292.000 C 280.500 301.878 280.746 303.151 284.649 313.500 C 290.109 327.978 290.811 330.207 292.552 338.617 C 295.817 354.381 299.136 394.000 297.192 394.000 C 294.282 394.000 287.820 381.600 279.994 361.000 C 266.353 325.088 255.967 309.613 240.000 301.411 C 234.969 298.827 233.561 298.582 223.500 298.543 C 213.538 298.504 211.946 298.760 206.623 301.253 C 203.391 302.767 197.792 306.114 194.181 308.691 L 187.615 313.376 194.733 315.549 C 212.072 320.844 219.529 328.354 244.088 365.262 C 251.861 376.943 260.309 388.971 262.861 391.991 C 265.412 395.012 268.175 398.316 269.000 399.334 C 271.504 402.426 281.168 409.548 287.000 412.600 C 292.136 415.287 293.261 415.477 304.000 415.468 C 314.479 415.459 315.976 415.219 320.858 412.767 C 335.689 405.319 343.854 396.047 368.644 358.500 C 380.167 341.048 387.531 331.836 395.258 325.208 C 401.421 319.922 404.566 318.245 413.456 315.509 L 420.412 313.367 414.628 309.095 C 411.447 306.745 405.842 303.400 402.172 301.661 C 395.928 298.703 394.795 298.501 384.500 298.521 C 373.864 298.542 373.286 298.657 367.042 302.021 C 351.589 310.346 343.060 323.194 328.556 360.000 C 321.339 378.316 317.629 386.308 314.353 390.603 C 310.236 396.001 309.653 395.064 310.395 384.250 C 312.861 348.306 315.975 331.702 324.075 311.312 C 329.594 297.419 329.727 286.643 324.514 275.837 C 322.723 272.125 304.539 248.000 303.532 248.000 C 303.416 248.000 302.838 249.013 302.248 250.250 "/></g>
<g fill="#147DEFFF" stroke="#147DEFFF">
<path d="M 181.000 331.838 C 181.000 332.849 182.523 338.812 184.384 345.088 C 195.134 381.334 211.518 403.911 238.000 418.969 C 245.820 423.416 262.022 430.217 272.750 433.555 C 278.882 435.463 280.834 437.000 277.126 437.000 C 274.453 437.000 258.874 443.411 249.726 448.276 C 239.513 453.708 226.693 463.404 219.611 471.054 C 214.751 476.303 214.109 477.429 215.210 478.768 C 216.729 480.615 230.339 490.807 231.835 491.218 C 232.401 491.373 235.780 487.241 239.344 482.036 C 259.083 453.208 277.086 440.644 300.619 439.273 C 320.865 438.093 340.620 447.120 355.208 464.217 C 359.407 469.137 372.220 486.563 374.519 490.479 C 375.427 492.025 376.407 491.569 383.519 486.283 C 395.769 477.179 395.612 478.353 385.875 468.629 C 377.407 460.172 365.753 451.879 354.165 446.064 C 346.220 442.077 333.117 437.000 330.773 437.000 C 327.159 437.000 329.183 435.443 335.250 433.555 C 344.389 430.711 361.738 423.683 367.500 420.491 C 383.170 411.809 396.107 400.405 404.531 387.849 C 413.210 374.915 422.395 352.984 426.462 335.486 L 427.737 330.000 422.119 330.009 C 409.330 330.031 397.980 341.262 377.767 373.897 C 359.287 403.733 346.479 417.771 330.500 425.703 C 321.236 430.302 315.630 431.502 303.500 431.482 C 290.940 431.462 283.453 429.451 273.406 423.401 C 257.655 413.917 250.374 405.184 224.548 364.805 C 208.663 339.967 197.725 330.030 186.250 330.009 C 181.817 330.001 181.000 330.286 181.000 331.838 "/></g>
<g fill="#005952FF" stroke="#005952FF">
<path d="M 299.500 454.649 C 285.474 457.570 278.532 461.316 268.547 471.352 C 261.741 478.192 246.143 498.686 247.182 499.422 C 251.873 502.750 281.776 511.712 283.081 510.182 C 283.401 509.807 284.213 507.475 284.884 505.000 C 287.591 495.030 300.750 473.000 304.000 473.000 C 307.405 473.000 320.162 494.448 323.557 505.881 C 324.769 509.962 325.478 510.992 326.804 510.601 C 327.737 510.326 332.100 509.214 336.500 508.131 C 344.376 506.191 361.000 500.252 361.000 499.377 C 361.000 498.553 357.611 493.572 350.797 484.382 C 338.122 467.286 326.309 458.445 312.122 455.438 C 305.456 454.025 303.177 453.883 299.500 454.649 "/></g>
<g fill="#005952FF" stroke="#005952FF">
<path d="M 434.043 364.500 C 433.316 366.700 430.702 372.775 428.235 378.000 C 416.494 402.870 401.348 419.448 378.445 432.500 L 370.921 436.788 374.385 438.929 C 380.972 443.000 389.531 450.069 397.662 458.153 L 405.824 466.268 411.912 457.957 C 415.260 453.386 418.000 449.103 418.000 448.439 C 418.000 446.679 402.777 441.027 393.759 439.439 C 391.701 439.077 390.225 438.445 390.478 438.036 C 390.731 437.626 393.540 436.342 396.719 435.182 C 413.732 428.978 430.395 409.258 435.442 389.356 C 437.032 383.085 437.408 367.618 436.083 363.000 C 435.401 360.622 435.302 360.695 434.043 364.500 "/></g>
<g fill="#005952FF" stroke="#005952FF">
<path d="M 171.453 369.657 C 169.250 393.172 181.705 417.573 202.500 430.480 C 206.350 432.870 211.413 435.386 213.750 436.071 C 218.991 437.607 219.137 438.584 214.250 439.416 C 212.188 439.767 205.862 441.676 200.193 443.657 C 192.327 446.405 190.020 447.610 190.454 448.741 C 191.307 450.964 200.034 463.783 201.551 465.043 C 202.576 465.893 204.464 464.465 209.940 458.700 C 213.827 454.609 221.466 447.977 226.916 443.963 L 236.825 436.664 227.163 430.949 C 209.005 420.208 194.411 405.231 184.826 387.500 C 179.795 378.194 174.000 365.257 174.000 363.333 C 174.000 362.600 173.588 362.000 173.085 362.000 C 172.582 362.000 171.848 365.445 171.453 369.657 "/></g>
<g fill="#005952FF" stroke="#005952FF">
<path d="M 521.250 352.732 L 517.000 353.115 517.000 374.986 L 517.000 396.856 522.466 397.539 C 532.541 398.798 542.260 397.765 546.285 395.007 C 553.149 390.303 554.109 382.909 548.573 377.373 L 545.146 373.946 547.573 371.327 C 551.163 367.453 550.977 360.823 547.171 357.017 C 542.626 352.472 536.105 351.394 521.250 352.732 M 541.066 380.035 C 542.274 380.682 543.000 382.126 543.000 383.880 C 543.000 389.050 537.521 391.755 529.487 390.550 L 525.000 389.877 525.000 384.439 L 525.000 379.000 532.066 379.000 C 535.952 379.000 540.002 379.466 541.066 380.035 M 536.922 360.123 C 540.651 361.423 542.379 364.872 541.052 368.364 C 539.902 371.387 538.195 372.000 530.918 372.000 L 525.000 372.000 525.000 366.066 C 525.000 360.361 525.106 360.117 527.750 359.716 C 532.787 358.953 533.681 358.993 536.922 360.123 "/></g>
<g fill="#005952FF" stroke="#005952FF">
<path d="M 1503.000 363.766 C 1499.358 364.370 1494.526 368.371 1492.641 372.345 C 1491.738 374.246 1491.000 378.141 1491.000 381.000 C 1491.000 387.325 1493.216 392.301 1497.485 395.556 C 1502.934 399.712 1511.381 398.549 1515.718 393.046 C 1516.723 391.771 1516.942 392.322 1516.968 396.194 C 1516.992 399.747 1516.412 401.571 1514.584 403.694 C 1512.403 406.228 1511.556 406.497 1505.834 406.465 C 1501.354 406.440 1498.675 405.881 1496.680 404.554 L 1493.860 402.678 1494.180 406.540 C 1494.445 409.735 1495.098 410.750 1497.959 412.415 C 1505.560 416.839 1517.533 413.702 1522.299 406.038 C 1524.332 402.770 1524.525 401.032 1524.826 383.250 L 1525.153 364.000 1521.076 364.000 C 1518.120 364.000 1517.000 364.412 1517.000 365.500 C 1517.000 367.356 1516.027 367.398 1513.473 365.652 C 1511.109 364.037 1506.440 363.196 1503.000 363.766 M 1513.750 372.989 C 1516.657 374.762 1517.000 375.455 1517.000 379.562 C 1517.000 385.583 1513.012 390.000 1507.577 390.000 C 1499.303 390.000 1496.162 379.748 1502.495 373.414 C 1505.445 370.464 1509.366 370.316 1513.750 372.989 "/></g>
<g fill="#005952FF" stroke="#005952FF">
<path d="M 1340.016 364.064 C 1335.029 365.179 1330.320 370.685 1329.462 376.403 C 1328.245 384.518 1329.685 390.010 1334.141 394.249 C 1337.593 397.533 1338.692 398.000 1342.965 398.000 C 1346.713 398.000 1348.537 397.419 1350.818 395.500 C 1352.452 394.125 1354.061 393.000 1354.394 393.000 C 1354.727 393.000 1355.000 394.775 1355.000 396.944 C 1355.000 399.674 1354.256 401.753 1352.584 403.694 C 1350.402 406.229 1349.551 406.498 1343.765 406.484 C 1339.307 406.472 1336.528 405.921 1334.617 404.668 L 1331.872 402.870 1332.186 406.636 C 1333.081 417.369 1353.524 416.935 1360.298 406.038 C 1362.327 402.776 1362.526 400.999 1362.855 383.250 L 1363.212 364.000 1359.106 364.000 C 1356.123 364.000 1355.000 364.410 1355.000 365.500 C 1355.000 367.356 1354.027 367.398 1351.473 365.652 C 1348.731 363.778 1344.138 363.141 1340.016 364.064 M 1351.750 372.989 C 1354.657 374.762 1355.000 375.455 1355.000 379.562 C 1355.000 385.608 1351.015 390.000 1345.529 390.000 C 1337.470 390.000 1333.948 379.898 1339.923 373.923 C 1343.400 370.446 1347.100 370.154 1351.750 372.989 "/></g>
<g fill="#005952FF" stroke="#005952FF">
<path d="M 1238.619 290.034 C 1231.819 292.070 1228.000 298.281 1228.000 307.302 C 1228.000 315.294 1230.498 319.505 1237.216 322.839 C 1241.294 324.863 1242.390 325.026 1245.344 324.052 C 1247.222 323.432 1249.557 322.042 1250.534 320.962 C 1253.175 318.044 1254.000 318.548 1254.000 323.077 C 1254.000 326.250 1253.352 327.802 1251.077 330.077 C 1248.594 332.559 1247.369 333.000 1242.945 333.000 C 1239.413 333.000 1236.652 332.330 1234.368 330.918 L 1231.000 328.837 1231.000 332.804 C 1231.000 336.334 1231.376 336.950 1234.401 338.386 C 1243.002 342.467 1255.457 339.020 1259.423 331.460 C 1261.267 327.945 1261.539 325.393 1261.844 308.750 L 1262.187 290.000 1258.094 290.000 C 1255.122 290.000 1254.000 290.411 1254.000 291.500 C 1254.000 293.384 1254.082 293.392 1248.859 291.022 C 1244.093 288.859 1242.921 288.746 1238.619 290.034 M 1250.745 299.151 C 1254.091 301.219 1254.207 301.491 1253.756 306.184 C 1253.165 312.335 1250.048 316.000 1245.407 316.000 C 1240.790 316.000 1239.128 315.148 1237.463 311.928 C 1235.108 307.374 1235.611 303.235 1238.923 299.923 C 1242.444 296.402 1245.928 296.174 1250.745 299.151 "/></g>
<g fill="#005952FF" stroke="#005952FF">
<path d="M 883.590 363.772 C 879.654 364.302 876.440 366.551 874.018 370.472 C 871.533 374.491 871.218 385.587 873.464 389.931 C 877.764 398.246 887.806 400.786 893.894 395.099 L 897.000 392.198 897.000 396.924 C 897.000 400.657 896.481 402.139 894.533 403.969 C 891.072 407.221 883.741 407.780 878.750 405.174 L 875.000 403.216 875.000 406.994 C 875.000 410.374 875.395 410.961 878.750 412.566 C 887.418 416.714 899.210 413.330 902.940 405.624 C 904.795 401.793 905.000 399.506 905.000 382.684 L 905.000 364.000 901.000 364.000 C 898.111 364.000 897.000 364.417 897.000 365.500 C 897.000 367.362 896.124 367.403 894.079 365.637 C 892.217 364.031 887.670 363.222 883.590 363.772 M 894.050 372.526 C 896.776 373.936 897.000 374.470 897.000 379.571 C 897.000 384.098 896.559 385.532 894.545 387.545 C 890.068 392.023 882.919 390.443 880.402 384.420 C 879.151 381.427 879.163 380.545 880.497 377.352 C 883.132 371.046 887.902 369.347 894.050 372.526 "/></g>
<g fill="#005952FF" stroke="#005952FF">
<path d="M 1076.371 290.087 C 1068.713 292.307 1065.023 300.104 1066.346 311.271 C 1067.429 320.415 1076.672 326.836 1084.213 323.684 C 1086.021 322.928 1088.118 321.565 1088.872 320.655 C 1090.934 318.169 1092.000 318.649 1092.000 322.066 C 1092.000 325.764 1090.505 328.902 1087.633 331.228 C 1084.987 333.371 1076.547 333.528 1073.000 331.500 C 1069.392 329.437 1069.000 329.622 1069.000 333.386 C 1069.000 338.143 1073.735 340.377 1082.619 339.812 C 1089.663 339.363 1092.999 337.521 1096.750 332.010 C 1098.892 328.863 1099.000 327.775 1099.000 309.352 L 1099.000 290.000 1095.500 290.000 C 1093.056 290.000 1092.000 290.452 1092.000 291.500 C 1092.000 293.468 1091.198 293.395 1086.500 291.000 C 1082.232 288.824 1081.086 288.721 1076.371 290.087 M 1088.632 299.082 C 1091.492 300.849 1092.000 301.731 1092.000 304.934 C 1092.000 307.201 1091.090 310.059 1089.717 312.102 C 1087.750 315.030 1086.796 315.542 1082.829 315.800 C 1078.839 316.060 1077.942 315.742 1076.112 313.415 C 1072.913 309.348 1073.259 303.587 1076.923 299.923 C 1080.421 296.425 1083.926 296.173 1088.632 299.082 "/></g>
<g fill="#F97910FF" stroke="#F97910FF">
<path d="M 273.500 249.540 C 261.165 253.102 256.912 254.633 248.129 258.670 C 237.694 263.466 224.785 271.701 217.978 277.905 L 213.500 281.986 220.000 281.398 C 227.579 280.712 241.267 282.861 248.000 285.793 C 250.475 286.871 254.863 289.353 257.750 291.309 L 263.000 294.865 263.015 290.682 C 263.054 279.569 268.284 266.758 277.426 255.382 C 282.474 249.102 282.762 248.482 280.729 248.298 C 279.503 248.187 276.250 248.746 273.500 249.540 "/></g>
<g fill="#F97910FF" stroke="#F97910FF">
<path d="M 331.681 256.703 C 340.915 268.946 344.964 278.994 344.988 289.730 L 345.000 294.960 351.750 290.658 C 355.463 288.293 360.525 285.636 363.000 284.754 C 370.020 282.254 381.676 280.712 388.388 281.395 L 394.500 282.017 390.000 277.857 C 377.438 266.246 356.506 255.498 335.643 249.948 C 324.389 246.953 324.362 246.999 331.681 256.703 "/></g>
<g fill="#005952FF" stroke="#005952FF">
<path d="M 612.500 438.167 C 611.400 438.775 609.488 440.190 608.250 441.311 L 606.000 443.349 606.000 440.674 C 606.000 438.221 605.670 438.000 602.000 438.000 L 598.000 438.000 598.000 462.500 L 598.000 487.000 602.000 487.000 L 606.000 487.000 606.000 477.418 L 606.000 467.837 609.368 469.918 C 619.796 476.363 631.665 468.230 631.924 454.462 C 632.134 443.301 620.645 433.662 612.500 438.167 M 621.250 448.114 C 622.381 449.476 623.000 451.920 623.000 455.022 C 623.000 459.155 622.572 460.182 619.923 462.411 C 616.200 465.544 613.803 465.659 609.368 462.918 C 606.318 461.033 606.000 460.394 606.000 456.141 C 606.000 448.679 610.122 444.513 616.500 445.529 C 618.150 445.791 620.288 446.955 621.250 448.114 "/></g>
<g fill="#005952FF" stroke="#005952FF">
<path d="M 680.000 447.000 L 680.000 471.000 684.000 471.000 C 687.642 471.000 688.000 470.767 688.000 468.396 L 688.000 465.793 691.535 468.896 C 696.501 473.257 702.977 473.292 708.199 468.988 C 712.717 465.264 714.353 460.557 713.798 452.881 C 713.322 446.306 711.368 442.908 705.908 439.162 C 701.734 436.298 695.761 436.610 691.091 439.935 L 688.000 442.136 688.000 432.568 L 688.000 423.000 684.000 423.000 L 680.000 423.000 680.000 447.000 M 702.478 447.250 C 705.434 449.819 706.657 455.211 705.164 459.097 C 703.861 462.488 698.008 465.336 694.834 464.122 C 690.994 462.654 688.973 459.567 688.338 454.202 C 687.753 449.263 687.825 449.077 691.118 447.069 C 695.509 444.392 699.258 444.452 702.478 447.250 "/></g>
<g fill="#005952FF" stroke="#005952FF">
<path d="M 517.000 449.000 L 517.000 471.000 521.000 471.000 L 525.000 471.000 525.000 462.500 C 525.000 457.825 525.402 454.000 525.892 454.000 C 526.383 454.000 530.006 457.825 533.942 462.500 L 541.100 471.000 546.673 471.000 L 552.246 471.000 544.662 462.647 L 537.078 454.293 541.025 453.111 C 543.196 452.460 546.216 450.858 547.736 449.551 C 550.185 447.444 550.500 446.488 550.500 441.152 C 550.500 435.921 550.133 434.748 547.700 432.209 C 543.879 428.221 539.059 427.000 527.134 427.000 L 517.000 427.000 517.000 449.000 M 540.470 436.967 C 545.098 442.080 541.074 448.000 532.971 448.000 C 525.434 448.000 525.000 447.613 525.000 440.893 L 525.000 435.000 531.845 435.000 C 537.382 435.000 539.030 435.376 540.470 436.967 "/></g>
<g fill="#005952FF" stroke="#005952FF">
<path d="M 1813.000 363.761 C 1811.625 363.986 1809.263 365.341 1807.750 366.772 L 1805.000 369.374 1805.000 366.687 C 1805.000 364.219 1804.674 364.000 1801.000 364.000 L 1797.000 364.000 1797.000 388.500 L 1797.000 413.000 1801.000 413.000 L 1805.000 413.000 1805.000 403.515 L 1805.000 394.029 1808.250 396.011 C 1810.311 397.268 1813.281 397.994 1816.368 397.996 C 1820.670 398.000 1821.675 397.560 1825.022 394.214 C 1835.121 384.115 1831.168 365.681 1818.500 363.798 C 1816.850 363.553 1814.375 363.536 1813.000 363.761 M 1817.928 372.463 C 1821.303 374.208 1822.000 375.754 1822.000 381.493 C 1822.000 385.131 1821.492 386.250 1818.818 388.500 C 1815.353 391.415 1811.791 391.404 1807.302 388.462 C 1805.402 387.217 1805.000 386.072 1805.000 381.900 C 1805.000 377.648 1805.463 376.383 1807.923 373.923 C 1811.181 370.665 1813.732 370.293 1817.928 372.463 "/></g>
<g fill="#005952FF" stroke="#005952FF">
<path d="M 1475.000 284.500 C 1475.000 289.175 1474.759 293.000 1474.465 293.000 C 1474.170 293.000 1472.767 292.238 1471.347 291.308 C 1468.338 289.336 1460.542 289.072 1457.291 290.831 C 1456.076 291.489 1453.837 293.659 1452.315 295.653 C 1448.404 300.781 1447.879 310.680 1451.210 316.500 C 1454.379 322.035 1461.602 325.683 1466.212 324.076 C 1467.989 323.456 1470.694 321.752 1472.222 320.288 L 1475.000 317.626 1475.000 320.313 C 1475.000 322.781 1475.326 323.000 1479.000 323.000 L 1483.000 323.000 1483.000 299.500 L 1483.000 276.000 1479.000 276.000 L 1475.000 276.000 1475.000 284.500 M 1471.750 298.989 C 1474.631 300.745 1475.000 301.475 1475.000 305.409 C 1475.000 311.467 1471.296 316.000 1466.345 316.000 C 1461.721 316.000 1459.532 314.700 1458.023 311.055 C 1455.376 304.666 1459.669 296.995 1465.885 297.004 C 1467.323 297.006 1469.963 297.899 1471.750 298.989 "/></g>
<g fill="#005952FF" stroke="#005952FF">
<path d="M 1738.000 359.030 L 1738.000 368.060 1734.996 365.839 C 1730.888 362.802 1723.363 362.894 1718.952 366.034 C 1712.473 370.648 1710.201 381.440 1713.964 389.729 C 1716.414 395.127 1720.991 397.991 1727.173 397.996 C 1731.061 397.999 1732.363 397.483 1734.923 394.923 L 1738.000 391.846 1738.000 394.423 C 1738.000 396.763 1738.368 397.000 1742.000 397.000 L 1746.000 397.000 1746.000 373.500 L 1746.000 350.000 1742.000 350.000 L 1738.000 350.000 1738.000 359.030 M 1734.750 372.989 C 1737.559 374.701 1738.000 375.523 1738.000 379.035 C 1738.000 387.239 1733.156 391.646 1726.179 389.790 C 1719.754 388.080 1718.326 378.383 1723.759 373.348 C 1726.852 370.481 1730.445 370.364 1734.750 372.989 "/></g>
<g fill="#005952FF" stroke="#005952FF">
<path d="M 1019.000 358.615 L 1019.000 367.230 1016.356 365.497 C 1013.098 363.363 1005.038 363.106 1001.457 365.023 C 997.105 367.352 993.666 374.353 993.672 380.872 C 993.678 387.345 995.545 391.598 1000.041 395.381 C 1004.409 399.057 1011.575 399.070 1015.923 395.411 C 1018.884 392.920 1019.000 392.901 1019.000 394.911 C 1019.000 396.681 1019.610 397.000 1023.000 397.000 L 1027.000 397.000 1027.000 373.500 L 1027.000 350.000 1023.000 350.000 L 1019.000 350.000 1019.000 358.615 M 1016.050 372.526 C 1018.725 373.909 1019.000 374.522 1019.000 379.091 C 1019.000 385.309 1017.746 387.783 1013.741 389.467 C 1004.533 393.338 997.646 381.200 1004.923 373.923 C 1008.216 370.630 1011.569 370.209 1016.050 372.526 "/></g>
<g fill="#005952FF" stroke="#005952FF">
<path d="M 926.000 432.000 C 926.000 436.950 925.757 441.000 925.460 441.000 C 925.163 441.000 923.156 440.100 921.000 439.000 C 916.069 436.484 912.946 436.477 908.061 438.969 C 902.209 441.954 900.000 446.305 900.000 454.844 C 900.000 466.142 904.877 471.981 914.327 471.993 C 918.316 471.999 919.653 471.501 922.032 469.122 C 925.049 466.105 926.000 466.116 926.000 469.167 C 926.000 470.595 926.773 471.000 929.500 471.000 L 933.000 471.000 933.000 447.000 L 933.000 423.000 929.500 423.000 L 926.000 423.000 926.000 432.000 M 921.610 446.619 C 925.803 448.609 926.812 451.921 924.905 457.436 C 922.973 463.023 917.778 465.955 913.450 463.901 C 911.828 463.130 909.698 460.859 908.717 458.853 C 907.060 455.464 907.046 454.925 908.525 451.230 C 910.922 445.238 915.385 443.665 921.610 446.619 "/></g>
<g fill="#005952FF" stroke="#005952FF">
<path d="M 1549.374 289.693 C 1548.205 289.920 1546.214 291.208 1544.950 292.553 C 1542.032 295.659 1541.000 295.646 1541.000 292.500 C 1541.000 290.310 1540.567 290.000 1537.500 290.000 L 1534.000 290.000 1534.000 314.500 L 1534.000 339.000 1537.500 339.000 L 1541.000 339.000 1541.000 329.417 C 1541.000 324.146 1541.338 320.006 1541.750 320.218 C 1551.200 325.061 1552.054 325.251 1556.580 323.523 C 1558.980 322.606 1562.041 320.552 1563.382 318.957 C 1569.656 311.501 1568.178 296.598 1560.681 291.720 C 1558.191 290.100 1552.511 289.082 1549.374 289.693 M 1555.923 299.589 C 1558.492 301.750 1559.000 302.897 1559.000 306.533 C 1559.000 312.436 1555.854 316.145 1550.726 316.291 C 1540.875 316.570 1537.664 305.343 1545.770 298.966 C 1549.154 296.305 1552.246 296.494 1555.923 299.589 "/></g>
<g fill="#005952FF" stroke="#005952FF">
<path d="M 751.000 374.916 L 751.000 397.000 755.500 397.000 L 760.000 397.000 760.000 390.481 L 760.000 383.962 762.750 384.695 C 775.002 387.962 785.434 380.987 785.424 369.535 C 785.419 363.518 783.229 359.382 778.233 355.954 C 775.022 353.751 773.444 353.466 762.828 353.166 L 751.000 352.833 751.000 374.916 M 774.739 364.483 C 779.841 370.415 775.851 378.000 767.627 378.000 C 760.166 378.000 760.000 377.799 760.000 368.754 L 760.000 360.722 766.239 361.288 C 771.340 361.751 772.889 362.333 774.739 364.483 "/></g>
<g fill="#005952FF" stroke="#005952FF">
<path d="M 628.000 358.500 C 628.000 363.175 627.650 367.000 627.223 367.000 C 626.795 367.000 625.407 366.273 624.139 365.385 C 621.183 363.315 613.279 363.287 609.322 365.334 C 603.337 368.428 600.197 377.238 602.055 385.716 C 603.794 393.645 608.736 398.000 615.995 398.000 C 619.598 398.000 621.319 397.361 624.272 394.927 L 628.000 391.854 628.000 394.427 C 628.000 396.701 628.407 397.000 631.500 397.000 L 635.000 397.000 635.000 373.500 L 635.000 350.000 631.500 350.000 L 628.000 350.000 628.000 358.500 M 624.750 372.989 C 627.272 374.527 628.000 375.653 628.000 378.017 C 628.000 386.149 621.996 391.940 615.805 389.782 C 611.908 388.424 610.000 385.328 610.000 380.366 C 610.000 376.917 610.543 375.721 613.077 373.589 C 616.757 370.492 620.352 370.307 624.750 372.989 "/></g>
<g fill="#005952FF" stroke="#005952FF">
<path d="M 1545.185 364.029 C 1541.455 364.867 1537.502 368.171 1535.405 372.200 C 1533.544 375.777 1533.600 386.326 1535.499 389.998 C 1539.532 397.797 1549.788 400.574 1555.818 395.500 C 1559.409 392.478 1560.000 392.407 1560.000 395.000 C 1560.000 396.667 1560.667 397.000 1564.000 397.000 L 1568.000 397.000 1568.000 380.500 L 1568.000 364.000 1564.000 364.000 C 1561.111 364.000 1560.000 364.417 1560.000 365.500 C 1560.000 367.356 1559.027 367.398 1556.473 365.652 C 1553.765 363.801 1549.150 363.138 1545.185 364.029 M 1556.882 373.069 C 1560.171 375.074 1560.247 375.268 1559.666 380.171 C 1558.989 385.887 1557.759 387.777 1553.571 389.539 C 1544.517 393.345 1537.740 381.107 1544.923 373.923 C 1548.428 370.418 1552.103 370.156 1556.882 373.069 "/></g>
<g fill="#005952FF" stroke="#005952FF">
<path d="M 1125.500 438.359 C 1119.214 441.263 1116.000 446.873 1116.000 454.943 C 1116.000 464.989 1120.817 471.071 1129.332 471.778 C 1134.229 472.184 1134.987 471.951 1138.339 469.007 L 1142.000 465.793 1142.000 468.396 C 1142.000 470.767 1142.358 471.000 1146.000 471.000 L 1150.000 471.000 1150.000 454.500 L 1150.000 438.000 1146.000 438.000 C 1142.623 438.000 1142.000 438.322 1142.000 440.068 L 1142.000 442.136 1138.953 439.967 C 1135.125 437.241 1129.402 436.557 1125.500 438.359 M 1140.181 447.664 C 1141.833 449.159 1142.122 450.380 1141.747 454.281 C 1140.973 462.337 1135.019 466.613 1128.948 463.473 C 1123.201 460.501 1122.493 451.618 1127.647 447.143 C 1129.825 445.251 1131.131 444.888 1134.258 445.308 C 1136.402 445.595 1139.067 446.655 1140.181 447.664 "/></g>
<g fill="#005952FF" stroke="#005952FF">
<path d="M 570.185 364.029 C 563.378 365.559 559.000 372.202 559.000 381.000 C 559.000 391.233 564.696 398.000 573.310 398.000 C 577.052 398.000 578.602 397.410 581.465 394.896 L 585.000 391.793 585.000 394.396 C 585.000 396.767 585.358 397.000 589.000 397.000 L 593.000 397.000 593.000 380.500 L 593.000 364.000 589.000 364.000 C 586.111 364.000 585.000 364.417 585.000 365.500 C 585.000 367.356 584.027 367.398 581.473 365.652 C 578.765 363.801 574.150 363.138 570.185 364.029 M 581.750 372.989 C 584.497 374.664 584.998 375.554 584.985 378.735 C 584.965 383.863 583.108 387.181 579.148 389.167 C 569.904 393.802 562.417 381.429 569.923 373.923 C 573.400 370.446 577.100 370.154 581.750 372.989 "/></g>
<g fill="#005952FF" stroke="#005952FF">
<path d="M 1048.013 363.728 C 1038.349 365.567 1033.128 379.076 1037.964 389.729 C 1040.414 395.127 1044.991 397.991 1051.173 397.996 C 1055.061 397.999 1056.363 397.483 1058.923 394.923 L 1062.000 391.846 1062.000 394.423 C 1062.000 396.763 1062.368 397.000 1066.000 397.000 L 1070.000 397.000 1070.000 380.500 L 1070.000 364.000 1066.000 364.000 C 1062.647 364.000 1062.000 364.328 1062.000 366.030 C 1062.000 368.051 1061.988 368.051 1059.250 366.109 C 1056.195 363.941 1051.793 363.009 1048.013 363.728 M 1059.096 373.068 C 1061.444 374.740 1062.000 375.876 1062.000 379.003 C 1062.000 381.130 1061.553 384.044 1061.008 385.480 C 1059.879 388.448 1054.968 390.908 1051.495 390.244 C 1044.652 388.936 1042.249 378.454 1047.646 373.452 C 1050.909 370.428 1055.186 370.285 1059.096 373.068 "/></g>
<g fill="#005952FF" stroke="#005952FF">
<path d="M 655.751 363.708 C 651.616 364.347 646.389 369.842 644.996 375.014 C 642.710 383.503 645.944 393.368 652.047 396.524 C 656.654 398.907 663.236 398.437 666.405 395.500 C 669.664 392.480 670.000 392.433 670.000 395.000 C 670.000 396.667 670.667 397.000 674.000 397.000 L 678.000 397.000 678.000 380.500 L 678.000 364.000 674.000 364.000 C 671.111 364.000 670.000 364.417 670.000 365.500 C 670.000 367.357 669.516 367.371 666.715 365.598 C 664.051 363.912 659.502 363.128 655.751 363.708 M 667.096 373.068 C 669.609 374.858 670.000 375.781 670.000 379.922 C 670.000 386.375 666.812 390.000 661.137 390.000 C 653.952 390.000 649.642 381.866 653.704 375.973 C 657.470 370.508 662.093 369.506 667.096 373.068 "/></g>
<g fill="#005952FF" stroke="#005952FF">
<path d="M 868.942 289.938 C 860.962 292.391 857.588 297.462 857.588 307.000 C 857.588 316.719 860.995 321.704 869.258 324.074 C 872.864 325.108 878.661 322.995 881.228 319.711 L 882.956 317.500 882.978 320.250 C 882.998 322.788 883.308 323.000 887.000 323.000 L 891.000 323.000 891.000 306.500 L 891.000 290.000 887.000 290.000 C 884.111 290.000 883.000 290.417 883.000 291.500 C 883.000 293.357 882.516 293.371 879.715 291.598 C 876.720 289.703 872.048 288.983 868.942 289.938 M 880.096 298.716 C 882.703 300.256 883.000 300.957 883.000 305.581 C 883.000 312.815 880.402 316.000 874.500 316.000 C 871.009 316.000 869.742 315.488 868.114 313.418 C 865.146 309.645 864.656 307.246 866.126 303.676 C 868.768 297.255 874.299 295.291 880.096 298.716 "/></g>
<g fill="#005952FF" stroke="#005952FF">
<path d="M 1281.819 289.971 C 1274.413 292.234 1271.000 297.472 1271.000 306.574 C 1271.000 316.474 1274.509 321.983 1282.121 324.033 C 1286.681 325.261 1291.823 323.519 1294.369 319.883 L 1296.000 317.555 1296.000 320.277 C 1296.000 322.787 1296.313 323.000 1300.000 323.000 L 1304.000 323.000 1304.000 306.500 L 1304.000 290.000 1300.000 290.000 C 1297.111 290.000 1296.000 290.417 1296.000 291.500 C 1296.000 293.357 1295.516 293.371 1292.715 291.598 C 1289.684 289.680 1285.040 288.986 1281.819 289.971 M 1293.096 298.716 C 1295.703 300.256 1296.000 300.957 1296.000 305.581 C 1296.000 312.815 1293.402 316.000 1287.500 316.000 C 1282.073 316.000 1279.000 312.726 1279.000 306.942 C 1279.000 298.909 1286.255 294.675 1293.096 298.716 "/></g>
<g fill="#005952FF" stroke="#005952FF">
<path d="M 1132.590 363.772 C 1125.371 364.744 1121.000 371.246 1121.000 381.010 C 1121.000 387.928 1122.542 391.595 1127.041 395.381 C 1131.333 398.992 1137.972 399.021 1142.656 395.449 C 1145.865 393.001 1146.000 392.981 1146.000 394.949 C 1146.000 396.675 1146.634 397.000 1150.000 397.000 L 1154.000 397.000 1154.000 380.500 L 1154.000 364.000 1150.000 364.000 C 1147.111 364.000 1146.000 364.417 1146.000 365.500 C 1146.000 367.362 1145.124 367.403 1143.079 365.637 C 1141.217 364.031 1136.670 363.222 1132.590 363.772 M 1143.050 372.526 C 1145.749 373.921 1146.000 374.499 1146.000 379.303 C 1146.000 382.328 1145.371 385.453 1144.516 386.674 C 1140.664 392.173 1132.141 390.975 1129.460 384.559 C 1128.162 381.452 1128.173 380.609 1129.555 377.153 C 1131.898 371.298 1137.176 369.488 1143.050 372.526 "/></g>
<g fill="#005952FF" stroke="#005952FF">
<path d="M 952.168 439.146 C 945.863 442.267 942.491 447.833 942.533 455.051 C 942.560 459.729 943.070 461.403 945.399 464.456 C 949.537 469.882 953.567 471.992 959.800 471.996 C 965.929 472.001 969.705 470.328 973.355 465.990 C 980.793 457.150 978.245 444.692 967.930 439.464 C 961.955 436.437 957.810 436.353 952.168 439.146 M 964.923 446.460 C 969.981 449.076 970.607 457.547 966.077 462.077 C 958.677 469.477 947.251 460.515 951.406 450.570 C 953.615 445.283 959.302 443.554 964.923 446.460 "/></g>
<g fill="#005952FF" stroke="#005952FF">
<path d="M 613.021 290.092 C 611.657 290.649 609.744 291.826 608.771 292.708 C 607.129 294.194 607.000 294.154 607.000 292.155 C 607.000 290.308 606.429 290.000 603.000 290.000 L 599.000 290.000 599.000 306.500 L 599.000 323.000 603.000 323.000 L 607.000 323.000 607.000 312.174 C 607.000 302.151 607.172 301.187 609.314 299.174 C 612.207 296.457 616.382 296.382 619.000 299.000 C 620.758 300.758 621.000 302.333 621.000 312.000 L 621.000 323.000 625.000 323.000 L 629.000 323.000 629.000 312.174 C 629.000 302.151 629.172 301.187 631.314 299.174 C 634.207 296.457 638.382 296.382 641.000 299.000 C 642.758 300.758 643.000 302.333 643.000 312.000 L 643.000 323.000 647.000 323.000 L 651.000 323.000 650.976 313.250 C 650.948 302.395 649.692 295.422 647.283 292.761 C 643.318 288.379 635.219 288.587 630.298 293.196 L 628.096 295.259 624.971 292.629 C 623.253 291.183 621.319 289.994 620.673 289.986 C 620.028 289.979 618.600 289.771 617.500 289.526 C 616.400 289.280 614.384 289.534 613.021 290.092 "/></g>
<g fill="#005952FF" stroke="#005952FF">
<path d="M 1378.000 301.000 L 1378.000 323.000 1381.961 323.000 L 1385.922 323.000 1386.211 314.250 L 1386.500 305.500 1397.000 305.500 L 1407.500 305.500 1407.789 314.250 L 1408.078 323.000 1412.039 323.000 L 1416.000 323.000 1416.000 301.000 L 1416.000 279.000 1412.000 279.000 L 1408.000 279.000 1408.000 288.000 L 1408.000 297.000 1397.000 297.000 L 1386.000 297.000 1386.000 288.000 L 1386.000 279.000 1382.000 279.000 L 1378.000 279.000 1378.000 301.000 "/></g>
<g fill="#005952FF" stroke="#005952FF">
<path d="M 1641.000 375.000 L 1641.000 397.000 1645.000 397.000 L 1649.000 397.000 1649.000 388.000 L 1649.000 379.000 1660.000 379.000 L 1671.000 379.000 1671.000 388.000 L 1671.000 397.000 1675.000 397.000 L 1679.000 397.000 1679.000 375.000 L 1679.000 353.000 1675.038 353.000 L 1671.075 353.000 1670.788 362.250 L 1670.500 371.500 1660.000 371.500 L 1649.500 371.500 1649.212 362.250 L 1648.925 353.000 1644.962 353.000 L 1641.000 353.000 1641.000 375.000 "/></g>
<g fill="#005952FF" stroke="#005952FF">
<path d="M 517.000 301.000 L 517.000 323.000 521.000 323.000 L 525.000 323.000 525.000 316.155 C 525.000 310.794 525.396 308.951 526.829 307.655 C 527.835 306.745 529.072 306.019 529.579 306.042 C 530.085 306.066 533.389 309.911 536.919 314.587 L 543.338 323.090 548.757 322.795 L 554.176 322.500 544.618 310.613 L 535.061 298.726 543.961 289.113 L 552.862 279.500 548.115 279.204 L 543.368 278.908 535.938 287.204 C 526.474 297.772 526.255 298.000 525.571 298.000 C 525.257 298.000 525.000 293.725 525.000 288.500 L 525.000 279.000 521.000 279.000 L 517.000 279.000 517.000 301.000 "/></g>
<g fill="#005952FF" stroke="#005952FF">
<path d="M 805.000 363.706 C 801.041 364.458 795.947 368.904 793.913 373.384 C 788.355 385.623 796.417 397.948 810.000 397.980 C 817.626 397.997 822.000 395.309 822.000 390.605 L 822.000 387.181 818.048 389.091 C 812.021 392.003 806.477 391.631 802.923 388.077 C 801.315 386.469 800.000 384.669 800.000 384.077 C 800.000 383.365 804.277 383.000 812.636 383.000 L 825.272 383.000 824.653 378.483 C 823.862 372.716 821.760 368.674 818.265 366.201 C 815.302 364.104 809.072 362.932 805.000 363.706 M 814.545 372.455 C 819.022 376.931 817.964 378.000 809.059 378.000 C 804.691 378.000 800.837 377.545 800.493 376.989 C 800.149 376.433 801.213 374.633 802.857 372.989 C 806.654 369.192 811.081 368.990 814.545 372.455 "/></g>
<g fill="#005952FF" stroke="#005952FF">
<path d="M 566.804 439.041 C 564.771 440.114 561.846 442.647 560.304 444.669 C 557.881 447.845 557.500 449.249 557.500 455.000 C 557.500 460.686 557.892 462.170 560.194 465.187 C 563.689 469.770 568.535 472.000 574.997 472.000 C 582.127 472.000 586.000 469.636 586.000 465.284 C 586.000 461.652 585.429 461.361 582.559 463.532 C 581.467 464.358 578.480 465.000 575.732 465.000 C 571.665 465.000 570.356 464.510 567.923 462.077 C 566.315 460.469 565.000 458.669 565.000 458.077 C 565.000 457.365 569.277 457.000 577.636 457.000 L 590.272 457.000 589.633 452.337 C 588.774 446.074 586.196 441.958 581.444 439.267 C 576.618 436.534 571.695 436.457 566.804 439.041 M 579.354 446.452 C 584.182 450.927 583.050 452.000 573.500 452.000 C 568.095 452.000 565.000 451.608 565.000 450.923 C 565.000 450.331 566.315 448.531 567.923 446.923 C 571.596 443.250 575.715 443.080 579.354 446.452 "/></g>
<g fill="#005952FF" stroke="#005952FF">
<path d="M 569.655 290.436 C 564.513 292.300 561.394 295.402 559.392 300.643 C 553.838 315.187 568.813 329.059 583.250 322.743 C 586.557 321.296 587.000 320.688 587.000 317.602 L 587.000 314.102 583.532 315.551 C 577.685 317.994 572.297 317.450 568.923 314.077 C 567.315 312.469 566.000 310.669 566.000 310.077 C 566.000 309.365 570.248 309.000 578.534 309.000 L 591.069 309.000 590.408 303.750 C 589.741 298.455 586.568 292.893 583.209 291.130 C 579.831 289.356 573.523 289.033 569.655 290.436 M 581.184 298.667 C 582.183 299.571 583.000 301.140 583.000 302.155 C 583.000 303.795 582.109 304.000 575.000 304.000 C 567.891 304.000 567.000 303.795 567.000 302.155 C 567.000 300.268 569.320 297.724 572.000 296.672 C 574.290 295.774 579.155 296.830 581.184 298.667 "/></g>
<g fill="#005952FF" stroke="#005952FF">
<path d="M 1035.500 438.573 C 1025.756 443.640 1022.185 454.471 1027.287 463.480 C 1031.582 471.064 1042.410 474.272 1050.599 470.386 C 1053.480 469.019 1054.000 468.254 1054.000 465.386 C 1054.000 461.645 1053.329 461.284 1050.441 463.468 C 1049.374 464.276 1046.328 464.951 1043.673 464.968 C 1039.648 464.995 1038.360 464.514 1035.923 462.077 C 1034.315 460.469 1033.000 458.669 1033.000 458.077 C 1033.000 457.368 1037.095 457.000 1045.000 457.000 L 1057.000 457.000 1057.000 452.368 C 1057.000 441.246 1045.074 433.593 1035.500 438.573 M 1047.354 446.452 C 1052.182 450.927 1051.050 452.000 1041.500 452.000 C 1036.095 452.000 1033.000 451.608 1033.000 450.923 C 1033.000 450.331 1034.315 448.531 1035.923 446.923 C 1039.596 443.250 1043.715 443.080 1047.354 446.452 "/></g>
<g fill="#005952FF" stroke="#005952FF">
<path d="M 671.159 289.964 C 666.915 291.006 661.373 296.338 659.903 300.794 C 654.951 315.797 669.498 329.040 683.830 322.577 C 687.519 320.913 688.000 320.310 688.000 317.348 C 688.000 313.482 688.112 313.539 684.364 315.494 C 679.065 318.258 671.368 317.106 668.282 313.087 C 665.468 309.422 666.575 309.000 679.000 309.000 L 691.000 309.000 691.000 304.960 C 691.000 294.319 681.786 287.355 671.159 289.964 M 678.713 297.050 C 681.163 297.904 684.000 301.390 684.000 303.547 C 684.000 303.796 680.175 304.000 675.500 304.000 C 666.629 304.000 665.619 303.402 668.373 299.777 C 669.497 298.296 673.174 296.267 675.101 296.063 C 675.431 296.029 677.057 296.472 678.713 297.050 "/></g>
<g fill="#005952FF" stroke="#005952FF">
<path d="M 927.500 363.737 C 923.195 364.354 918.080 368.612 915.913 373.384 C 910.364 385.604 918.331 397.942 931.800 397.984 C 939.337 398.007 943.000 395.895 943.000 391.525 L 943.000 388.102 939.532 389.551 C 933.685 391.994 928.297 391.450 924.923 388.077 C 923.315 386.469 922.000 384.669 922.000 384.077 C 922.000 383.368 926.095 383.000 934.000 383.000 L 946.000 383.000 946.000 378.450 C 946.000 368.246 938.370 362.178 927.500 363.737 M 936.545 372.455 C 941.029 376.938 939.968 378.000 931.000 378.000 C 923.767 378.000 923.000 377.815 923.000 376.073 C 923.000 373.439 927.633 370.000 931.180 370.000 C 932.937 370.000 935.064 370.973 936.545 372.455 "/></g>
<g fill="#005952FF" stroke="#005952FF">
<path d="M 779.684 290.416 C 774.684 292.242 772.125 294.613 769.881 299.500 C 763.081 314.308 778.188 329.333 793.250 322.743 C 796.557 321.296 797.000 320.688 797.000 317.602 L 797.000 314.102 793.532 315.551 C 787.685 317.994 782.297 317.450 778.923 314.077 C 777.315 312.469 776.000 310.669 776.000 310.077 C 776.000 309.368 780.095 309.000 788.000 309.000 L 800.000 309.000 800.000 304.148 C 800.000 293.511 789.901 286.685 779.684 290.416 M 791.250 299.114 C 794.655 303.215 793.652 304.000 785.000 304.000 C 777.891 304.000 777.000 303.795 777.000 302.155 C 777.000 296.534 787.286 294.339 791.250 299.114 "/></g>
<g fill="#005952FF" stroke="#005952FF">
<path d="M 764.667 423.667 C 764.300 424.033 764.000 434.833 764.000 447.667 L 764.000 471.000 768.000 471.000 L 772.000 471.000 772.000 466.674 C 772.000 463.355 772.581 461.803 774.496 460.004 C 775.869 458.714 777.139 457.848 777.319 458.079 C 777.500 458.311 779.778 461.313 782.382 464.750 C 786.941 470.768 787.282 471.000 791.558 471.000 C 794.001 471.000 795.980 470.663 795.956 470.250 C 795.932 469.838 792.801 465.675 788.998 461.000 L 782.085 452.500 789.268 445.250 L 796.450 438.000 791.616 438.000 C 786.923 438.000 786.592 438.204 780.223 445.000 C 776.616 448.850 773.289 452.000 772.832 452.000 C 772.374 452.000 772.000 445.475 772.000 437.500 L 772.000 423.000 768.667 423.000 C 766.833 423.000 765.033 423.300 764.667 423.667 "/></g>
<g fill="#005952FF" stroke="#005952FF">
<path d="M 1111.000 299.500 L 1111.000 323.000 1115.000 323.000 L 1119.000 323.000 1119.000 318.155 C 1119.000 314.567 1119.523 312.837 1121.016 311.486 C 1123.313 309.407 1122.832 309.010 1129.218 318.248 C 1132.354 322.784 1132.712 322.996 1137.250 322.998 C 1139.863 322.999 1142.000 322.771 1142.000 322.491 C 1142.000 322.211 1138.873 318.049 1135.052 313.241 L 1128.103 304.500 1135.277 297.250 L 1142.450 290.000 1137.758 290.000 C 1133.245 290.000 1132.799 290.276 1126.055 297.250 L 1119.044 304.500 1119.022 290.250 L 1119.000 276.000 1115.000 276.000 L 1111.000 276.000 1111.000 299.500 "/></g>
<g fill="#005952FF" stroke="#005952FF">
<path d="M 1374.000 373.500 L 1374.000 397.000 1378.000 397.000 L 1382.000 397.000 1382.000 392.155 C 1382.000 388.561 1382.523 386.837 1384.024 385.479 C 1385.207 384.408 1386.371 384.032 1386.826 384.574 C 1387.255 385.083 1389.549 388.088 1391.924 391.250 C 1396.031 396.717 1396.459 397.000 1400.622 397.000 C 1403.030 397.000 1405.000 396.741 1405.000 396.424 C 1405.000 395.725 1396.443 384.474 1393.283 381.017 L 1391.013 378.534 1398.231 371.267 L 1405.450 364.000 1400.840 364.000 C 1396.437 364.000 1395.912 364.325 1389.132 371.250 L 1382.034 378.500 1382.017 364.250 L 1382.000 350.000 1378.000 350.000 L 1374.000 350.000 1374.000 373.500 "/></g>
<g fill="#005952FF" stroke="#005952FF">
<path d="M 824.000 431.000 L 824.000 435.000 828.000 435.000 L 832.000 435.000 832.000 449.500 L 832.000 464.000 828.000 464.000 C 824.095 464.000 824.000 464.083 824.000 467.500 L 824.000 471.000 836.500 471.000 L 849.000 471.000 849.000 467.500 C 849.000 464.083 848.905 464.000 845.000 464.000 L 841.000 464.000 841.000 449.500 L 841.000 435.000 845.000 435.000 L 849.000 435.000 849.000 431.000 L 849.000 427.000 836.500 427.000 L 824.000 427.000 824.000 431.000 "/></g>
<g fill="#005952FF" stroke="#005952FF">
<path d="M 1468.500 363.773 C 1467.400 364.026 1465.306 365.081 1463.846 366.117 C 1460.500 368.490 1460.000 368.475 1460.000 366.000 C 1460.000 364.333 1459.333 364.000 1456.000 364.000 L 1452.000 364.000 1452.000 380.500 L 1452.000 397.000 1456.000 397.000 L 1460.000 397.000 1460.000 386.589 C 1460.000 376.191 1460.004 376.175 1463.077 373.589 C 1466.519 370.693 1469.665 370.304 1472.559 372.417 C 1474.249 373.651 1474.544 375.334 1474.836 385.417 L 1475.172 397.000 1479.086 397.000 L 1483.000 397.000 1483.000 385.468 C 1483.000 373.425 1481.939 368.920 1478.388 365.887 C 1476.278 364.085 1471.540 363.072 1468.500 363.773 "/></g>
<g fill="#005952FF" stroke="#005952FF">
<path d="M 1203.370 290.401 C 1201.649 291.172 1199.935 292.297 1199.561 292.901 C 1198.463 294.677 1197.000 294.163 1197.000 292.000 C 1197.000 290.333 1196.333 290.000 1193.000 290.000 L 1189.000 290.000 1189.000 306.500 L 1189.000 323.000 1193.000 323.000 L 1197.000 323.000 1197.000 312.540 C 1197.000 302.424 1197.090 301.998 1199.740 299.540 C 1202.789 296.713 1206.623 296.272 1209.549 298.412 C 1211.223 299.636 1211.529 301.368 1211.848 311.412 L 1212.216 323.000 1216.108 323.000 L 1220.000 323.000 1219.923 312.250 C 1219.881 306.338 1219.317 299.748 1218.671 297.606 C 1216.663 290.954 1209.583 287.620 1203.370 290.401 "/></g>
<g fill="#005952FF" stroke="#005952FF">
<path d="M 1305.376 364.126 C 1303.657 364.602 1301.690 365.669 1301.003 366.496 C 1299.271 368.584 1298.000 368.374 1298.000 366.000 C 1298.000 364.333 1297.333 364.000 1294.000 364.000 L 1290.000 364.000 1290.000 380.500 L 1290.000 397.000 1294.000 397.000 L 1298.000 397.000 1298.000 386.589 C 1298.000 376.191 1298.004 376.175 1301.077 373.589 C 1304.781 370.472 1307.869 370.298 1310.811 373.039 C 1312.806 374.897 1313.000 376.051 1313.000 386.039 L 1313.000 397.000 1317.000 397.000 L 1321.000 397.000 1320.940 387.750 C 1320.858 374.934 1319.785 369.310 1316.896 366.542 C 1314.069 363.833 1309.721 362.921 1305.376 364.126 "/></g>
<g fill="#005952FF" stroke="#005952FF">
<path d="M 705.000 363.761 C 703.625 363.986 701.263 365.341 699.750 366.772 L 697.000 369.374 697.000 366.687 C 697.000 364.219 696.674 364.000 693.000 364.000 L 689.000 364.000 689.000 380.500 L 689.000 397.000 693.000 397.000 L 697.000 397.000 697.000 386.452 C 697.000 376.331 697.107 375.805 699.646 373.452 C 702.892 370.444 707.054 370.298 709.595 373.102 C 711.169 374.839 711.559 377.095 711.838 386.102 L 712.177 397.000 716.088 397.000 L 720.000 397.000 719.994 386.750 C 719.991 381.113 719.520 374.813 718.948 372.752 C 717.016 365.796 712.065 362.605 705.000 363.761 "/></g>
<g fill="#005952FF" stroke="#005952FF">
<path d="M 873.595 439.500 C 869.152 442.515 869.000 442.532 869.000 440.000 C 869.000 438.333 868.333 438.000 865.000 438.000 L 861.000 438.000 861.000 454.500 L 861.000 471.000 865.000 471.000 L 869.000 471.000 869.000 460.155 C 869.000 450.947 869.274 449.062 870.816 447.667 C 873.761 445.001 878.730 444.445 881.027 446.525 C 882.770 448.102 883.000 449.632 883.000 459.655 L 883.000 471.000 887.000 471.000 L 891.000 471.000 891.000 458.968 C 891.000 445.196 889.785 440.974 885.128 438.566 C 880.873 436.366 877.853 436.610 873.595 439.500 "/></g>
<g fill="#005952FF" stroke="#005952FF">
<path d="M 848.500 363.704 C 847.400 363.974 845.263 365.360 843.750 366.784 L 841.000 369.374 841.000 366.687 C 841.000 364.219 840.674 364.000 837.000 364.000 L 833.000 364.000 833.000 380.500 L 833.000 397.000 837.000 397.000 L 841.000 397.000 841.000 386.452 C 841.000 376.331 841.107 375.805 843.646 373.452 C 846.778 370.550 851.035 370.276 853.345 372.829 C 854.677 374.301 855.000 376.837 855.000 385.829 L 855.000 397.000 859.000 397.000 L 863.000 397.000 863.000 384.968 C 863.000 372.237 861.763 366.997 858.335 365.199 C 855.786 363.862 850.889 363.118 848.500 363.704 "/></g>
<g fill="#005952FF" stroke="#005952FF">
<path d="M 971.000 363.747 C 969.625 363.980 967.263 365.341 965.750 366.772 L 963.000 369.374 963.000 366.687 C 963.000 364.219 962.674 364.000 959.000 364.000 L 955.000 364.000 955.000 380.500 L 955.000 397.000 959.000 397.000 L 963.000 397.000 963.000 386.068 C 963.000 375.143 963.002 375.135 965.904 373.068 C 969.494 370.512 973.164 370.419 975.345 372.829 C 976.677 374.301 977.000 376.837 977.000 385.829 L 977.000 397.000 981.000 397.000 L 985.000 397.000 985.000 384.450 C 985.000 368.443 983.609 365.251 976.000 363.800 C 974.625 363.538 972.375 363.514 971.000 363.747 "/></g>
<g fill="#005952FF" stroke="#005952FF">
<path d="M 715.500 289.723 C 714.400 290.004 712.263 291.112 710.750 292.185 C 708.007 294.131 708.000 294.131 708.000 292.068 C 708.000 290.322 707.377 290.000 704.000 290.000 L 700.000 290.000 700.000 306.500 L 700.000 323.000 704.000 323.000 L 708.000 323.000 708.000 312.073 C 708.000 301.459 708.076 301.086 710.635 299.073 C 713.891 296.511 718.151 296.404 720.345 298.829 C 721.677 300.301 722.000 302.837 722.000 311.829 L 722.000 323.000 726.098 323.000 L 730.196 323.000 729.848 309.518 C 729.500 296.045 729.498 296.034 726.500 293.113 C 723.449 290.139 719.110 288.802 715.500 289.723 "/></g>
<g fill="#005952FF" stroke="#005952FF">
<path d="M 1149.000 302.132 C 1149.000 312.805 1149.259 314.683 1151.152 317.747 C 1154.938 323.873 1164.456 325.872 1171.790 322.083 C 1177.692 319.034 1178.409 317.065 1178.828 302.750 L 1179.201 290.000 1175.100 290.000 L 1171.000 290.000 1171.000 300.777 C 1171.000 313.780 1169.979 316.000 1164.000 316.000 C 1158.021 316.000 1157.000 313.780 1157.000 300.777 L 1157.000 290.000 1153.000 290.000 L 1149.000 290.000 1149.000 302.132 "/></g>
<g fill="#005952FF" stroke="#005952FF">
<path d="M 1041.370 290.440 C 1039.649 291.190 1037.935 292.297 1037.561 292.901 C 1036.463 294.677 1035.000 294.163 1035.000 292.000 C 1035.000 290.333 1034.333 290.000 1031.000 290.000 L 1027.000 290.000 1027.000 306.500 L 1027.000 323.000 1031.000 323.000 L 1035.000 323.000 1035.000 312.452 C 1035.000 302.331 1035.107 301.805 1037.646 299.452 C 1041.178 296.179 1045.266 296.251 1047.927 299.635 C 1049.721 301.916 1050.000 303.663 1050.000 312.635 L 1050.000 323.000 1053.500 323.000 L 1057.000 323.000 1057.000 309.904 C 1057.000 294.817 1055.850 291.886 1049.207 290.041 C 1044.726 288.796 1045.204 288.772 1041.370 290.440 "/></g>
<g fill="#005952FF" stroke="#005952FF">
<path d="M 916.370 290.440 C 914.649 291.190 912.935 292.297 912.561 292.901 C 911.451 294.697 910.000 294.153 910.000 291.940 C 910.000 290.170 909.470 289.923 906.250 290.190 L 902.500 290.500 902.225 306.750 L 901.950 323.000 905.975 323.000 L 910.000 323.000 910.000 312.805 C 910.000 303.103 910.130 302.474 912.687 299.805 C 915.974 296.374 920.108 296.126 922.961 299.189 C 924.752 301.111 925.000 302.691 925.000 312.189 L 925.000 323.000 928.500 323.000 L 932.000 323.000 932.000 309.965 C 932.000 295.325 931.137 292.791 925.328 290.364 C 921.342 288.698 920.354 288.707 916.370 290.440 "/></g>
<g fill="#005952FF" stroke="#005952FF">
<path d="M 1412.000 375.550 C 1412.000 388.508 1412.885 391.285 1418.343 395.448 C 1422.680 398.756 1430.844 399.002 1435.810 395.974 C 1440.766 392.953 1442.000 388.878 1442.000 375.532 L 1442.000 364.000 1438.032 364.000 L 1434.063 364.000 1433.782 375.645 C 1433.508 386.971 1433.427 387.344 1430.814 389.292 C 1428.425 391.074 1427.779 391.151 1424.980 389.992 C 1420.788 388.255 1420.000 385.715 1420.000 373.935 L 1420.000 364.000 1416.000 364.000 L 1412.000 364.000 1412.000 375.550 "/></g>
<g fill="#005952FF" stroke="#005952FF">
<path d="M 640.007 450.250 C 640.014 463.708 640.882 466.305 646.641 470.102 C 650.203 472.450 657.930 472.602 662.540 470.414 C 668.474 467.598 669.431 465.019 669.838 450.750 L 670.201 438.000 666.100 438.000 L 662.000 438.000 662.000 449.045 C 662.000 459.439 661.855 460.236 659.545 462.545 C 658.195 463.895 656.150 465.000 655.000 465.000 C 653.850 465.000 651.805 463.895 650.455 462.545 C 648.145 460.236 648.000 459.439 648.000 449.045 L 648.000 438.000 644.000 438.000 L 640.000 438.000 640.007 450.250 "/></g>
<g fill="#005952FF" stroke="#005952FF">
<path d="M 1493.344 291.545 C 1493.018 292.394 1492.949 298.239 1493.190 304.532 C 1493.589 314.960 1493.844 316.206 1496.064 318.582 C 1501.144 324.020 1508.443 325.513 1515.510 322.560 C 1521.620 320.007 1522.992 316.286 1522.996 302.250 L 1523.000 290.000 1519.000 290.000 L 1515.000 290.000 1515.000 300.777 C 1515.000 313.780 1513.979 316.000 1508.000 316.000 C 1502.021 316.000 1501.000 313.780 1501.000 300.777 L 1501.000 290.000 1497.469 290.000 C 1495.207 290.000 1493.724 290.555 1493.344 291.545 "/></g>
<g fill="#005952FF" stroke="#005952FF">
<path d="M 998.595 439.500 C 994.152 442.515 994.000 442.532 994.000 440.000 C 994.000 438.381 993.333 438.000 990.500 438.000 L 987.000 438.000 987.000 454.500 L 987.000 471.000 990.500 471.000 L 994.000 471.000 994.000 460.589 C 994.000 450.191 994.004 450.175 997.077 447.589 C 1000.762 444.488 1004.279 444.279 1007.000 447.000 C 1008.758 448.758 1009.000 450.333 1009.000 460.000 L 1009.000 471.000 1013.000 471.000 L 1017.000 471.000 1017.000 459.468 C 1017.000 446.122 1015.766 442.047 1010.810 439.026 C 1006.414 436.345 1003.052 436.476 998.595 439.500 "/></g>
<g fill="#005952FF" stroke="#005952FF">
<path d="M 1594.500 363.773 C 1593.400 364.026 1591.306 365.081 1589.846 366.117 C 1586.500 368.490 1586.000 368.475 1586.000 366.000 C 1586.000 364.381 1585.333 364.000 1582.500 364.000 L 1579.000 364.000 1579.000 380.500 L 1579.000 397.000 1582.500 397.000 L 1586.000 397.000 1586.000 386.589 C 1586.000 376.191 1586.004 376.175 1589.077 373.589 C 1592.590 370.633 1595.577 370.315 1598.777 372.557 C 1600.854 374.011 1601.000 374.865 1601.000 385.557 L 1601.000 397.000 1605.098 397.000 L 1609.196 397.000 1608.848 383.518 C 1608.500 370.038 1608.500 370.036 1605.500 367.140 C 1602.482 364.226 1598.208 362.918 1594.500 363.773 "/></g>
<g fill="#005952FF" stroke="#005952FF">
<path d="M 1329.370 290.440 C 1327.649 291.190 1325.935 292.297 1325.561 292.901 C 1324.463 294.677 1323.000 294.163 1323.000 292.000 C 1323.000 290.381 1322.333 290.000 1319.500 290.000 L 1316.000 290.000 1316.000 306.500 L 1316.000 323.000 1319.500 323.000 L 1323.000 323.000 1323.000 312.589 C 1323.000 302.191 1323.004 302.175 1326.077 299.589 C 1329.762 296.488 1333.279 296.279 1336.000 299.000 C 1337.758 300.758 1338.000 302.333 1338.000 312.000 L 1338.000 323.000 1342.118 323.000 L 1346.236 323.000 1345.836 310.157 C 1345.386 295.691 1344.332 292.872 1338.454 290.416 C 1334.336 288.696 1333.373 288.698 1329.370 290.440 "/></g>
<g fill="#005952FF" stroke="#005952FF">
<path d="M 1180.376 364.126 C 1178.657 364.602 1176.690 365.669 1176.003 366.496 C 1174.271 368.584 1173.000 368.374 1173.000 366.000 C 1173.000 364.381 1172.333 364.000 1169.500 364.000 L 1166.000 364.000 1166.000 380.500 L 1166.000 397.000 1169.500 397.000 L 1173.000 397.000 1173.000 386.589 C 1173.000 376.191 1173.004 376.175 1176.077 373.589 C 1179.762 370.488 1183.279 370.279 1186.000 373.000 C 1187.758 374.758 1188.000 376.333 1188.000 386.000 L 1188.000 397.000 1192.000 397.000 L 1196.000 397.000 1195.976 386.750 C 1195.963 381.113 1195.544 374.742 1195.046 372.593 C 1193.426 365.611 1187.454 362.164 1180.376 364.126 "/></g>
<g fill="#005952FF" stroke="#005952FF">
<path d="M 1757.000 376.865 C 1757.000 391.029 1757.813 393.301 1764.039 396.520 C 1767.717 398.422 1775.288 398.419 1778.971 396.515 C 1784.980 393.408 1786.000 390.516 1786.000 376.596 L 1786.000 364.000 1782.000 364.000 L 1778.000 364.000 1777.985 375.250 C 1777.976 381.438 1777.639 386.995 1777.235 387.600 C 1775.546 390.129 1771.904 391.203 1769.039 390.016 C 1765.008 388.346 1764.000 385.133 1764.000 373.953 L 1764.000 364.000 1760.500 364.000 L 1757.000 364.000 1757.000 376.865 "/></g>
<g fill="#005952FF" stroke="#005952FF">
<path d="M 1228.000 375.000 L 1228.000 397.000 1243.000 397.000 L 1258.000 397.000 1258.000 393.000 L 1258.000 389.000 1247.000 389.000 L 1236.000 389.000 1236.000 371.000 L 1236.000 353.000 1232.000 353.000 L 1228.000 353.000 1228.000 375.000 "/></g>
<g fill="#005952FF" stroke="#005952FF">
<path d="M 965.000 301.000 L 965.000 323.000 980.000 323.000 L 995.000 323.000 995.000 319.500 L 995.000 316.000 984.000 316.000 L 973.000 316.000 973.000 297.500 L 973.000 279.000 969.000 279.000 L 965.000 279.000 965.000 301.000 "/></g>
<g fill="#005952FF" stroke="#005952FF">
<path d="M 1071.001 438.123 C 1066.254 440.016 1064.000 443.035 1064.000 447.500 C 1064.000 452.553 1066.329 455.057 1073.500 457.712 C 1077.650 459.248 1078.500 459.982 1078.500 462.031 C 1078.500 464.362 1078.193 464.498 1073.000 464.457 C 1069.975 464.433 1066.713 464.047 1065.750 463.600 C 1064.261 462.907 1064.000 463.310 1064.000 466.295 C 1064.000 469.332 1064.424 469.952 1067.149 470.902 C 1078.071 474.710 1089.632 468.351 1087.468 459.727 C 1086.605 456.291 1084.535 454.652 1078.286 452.460 C 1072.392 450.392 1071.157 448.589 1073.706 445.773 C 1075.464 443.830 1078.273 443.757 1083.750 445.512 C 1085.754 446.154 1086.000 445.895 1086.000 443.142 C 1086.000 440.731 1085.351 439.716 1083.050 438.526 C 1079.724 436.806 1074.723 436.639 1071.001 438.123 "/></g>
<g fill="#005952FF" stroke="#005952FF">
<path d="M 744.129 285.463 C 742.827 287.918 740.690 290.628 739.381 291.486 C 738.071 292.344 737.000 293.936 737.000 295.023 C 737.000 296.553 737.678 297.000 740.000 297.000 L 743.000 297.000 743.000 307.365 C 743.000 316.243 743.289 318.098 745.016 320.293 C 748.041 324.138 752.976 325.455 757.414 323.600 C 760.461 322.327 761.000 321.625 761.000 318.926 C 761.000 315.912 760.843 315.781 757.918 316.366 C 752.011 317.548 751.000 316.028 751.000 305.965 L 751.000 297.000 756.000 297.000 L 761.000 297.000 761.000 293.500 L 761.000 290.000 756.000 290.000 L 751.000 290.000 751.000 285.500 C 751.000 281.499 750.750 281.000 748.748 281.000 C 747.103 281.000 745.859 282.201 744.129 285.463 "/></g>
<g fill="#005952FF" stroke="#005952FF">
<path d="M 723.000 447.000 L 723.000 471.000 727.000 471.000 L 731.000 471.000 731.000 447.000 L 731.000 423.000 727.000 423.000 L 723.000 423.000 723.000 447.000 "/></g>
<g fill="#005952FF" stroke="#005952FF">
<path d="M 1081.000 373.500 L 1081.000 397.000 1085.000 397.000 L 1089.000 397.000 1089.000 373.500 L 1089.000 350.000 1085.000 350.000 L 1081.000 350.000 1081.000 373.500 "/></g>
<g fill="#005952FF" stroke="#005952FF">
<path d="M 809.000 306.500 L 809.000 323.000 813.000 323.000 L 817.000 323.000 817.000 313.187 C 817.000 303.643 817.080 303.297 819.928 300.569 C 822.288 298.308 823.548 297.845 826.428 298.181 L 830.000 298.598 830.000 294.299 C 830.000 290.065 829.948 290.000 826.551 290.000 C 823.951 290.000 822.351 290.800 820.055 293.250 L 817.009 296.500 817.005 293.250 C 817.000 290.126 816.845 290.000 813.000 290.000 L 809.000 290.000 809.000 306.500 "/></g>
<g fill="#005952FF" stroke="#005952FF">
<path d="M 1586.543 281.683 C 1586.173 283.158 1584.783 289.571 1583.454 295.933 C 1582.126 302.295 1580.363 310.650 1579.537 314.500 C 1578.711 318.350 1578.027 321.838 1578.017 322.250 C 1578.008 322.663 1579.710 323.000 1581.800 323.000 L 1585.600 323.000 1586.854 316.750 C 1587.543 313.313 1588.725 307.800 1589.480 304.500 C 1590.953 298.058 1593.833 284.930 1594.581 281.250 C 1594.993 279.222 1594.652 279.000 1591.127 279.000 C 1587.719 279.000 1587.130 279.345 1586.543 281.683 "/></g>
<g fill="#005952FF" stroke="#005952FF">
<path d="M 1094.000 441.500 C 1094.000 444.567 1094.310 445.000 1096.500 445.000 L 1099.000 445.000 1099.000 458.000 L 1099.000 471.000 1103.000 471.000 L 1107.000 471.000 1107.000 454.500 L 1107.000 438.000 1100.500 438.000 L 1094.000 438.000 1094.000 441.500 "/></g>
<g fill="#005952FF" stroke="#005952FF">
<path d="M 1690.000 367.500 C 1690.000 370.567 1690.310 371.000 1692.500 371.000 L 1695.000 371.000 1695.000 384.000 L 1695.000 397.000 1699.000 397.000 L 1703.000 397.000 1703.000 380.500 L 1703.000 364.000 1696.500 364.000 L 1690.000 364.000 1690.000 367.500 "/></g>
<g fill="#005952FF" stroke="#005952FF">
<path d="M 1266.000 367.500 C 1266.000 370.567 1266.310 371.000 1268.500 371.000 L 1271.000 371.000 1271.000 384.000 L 1271.000 397.000 1275.000 397.000 L 1279.000 397.000 1279.000 380.500 L 1279.000 364.000 1272.500 364.000 L 1266.000 364.000 1266.000 367.500 "/></g>
<g fill="#005952FF" stroke="#005952FF">
<path d="M 1427.000 293.500 C 1427.000 296.567 1427.310 297.000 1429.500 297.000 L 1432.000 297.000 1432.000 310.000 L 1432.000 323.000 1436.000 323.000 L 1440.000 323.000 1440.000 306.500 L 1440.000 290.000 1433.500 290.000 L 1427.000 290.000 1427.000 293.500 "/></g>
<g fill="#005952FF" stroke="#005952FF">
<path d="M 1003.000 293.500 C 1003.000 296.567 1003.310 297.000 1005.500 297.000 L 1008.000 297.000 1008.000 310.000 L 1008.000 323.000 1012.000 323.000 L 1016.000 323.000 1016.000 306.500 L 1016.000 290.000 1009.500 290.000 L 1003.000 290.000 1003.000 293.500 "/></g>
<g fill="#005952FF" stroke="#005952FF">
<path d="M 740.000 441.500 C 740.000 444.722 740.238 445.000 743.000 445.000 L 746.000 445.000 746.000 458.000 L 746.000 471.000 749.500 471.000 L 753.000 471.000 753.000 454.500 L 753.000 438.000 746.500 438.000 L 740.000 438.000 740.000 441.500 "/></g>
<g fill="#005952FF" stroke="#005952FF">
<path d="M 1098.000 367.500 C 1098.000 370.722 1098.238 371.000 1101.000 371.000 L 1104.000 371.000 1104.000 384.000 L 1104.000 397.000 1107.500 397.000 L 1111.000 397.000 1111.000 380.500 L 1111.000 364.000 1104.500 364.000 L 1098.000 364.000 1098.000 367.500 "/></g>
<g fill="#005952FF" stroke="#005952FF">
<path d="M 835.000 293.500 C 835.000 296.722 835.238 297.000 838.000 297.000 L 841.000 297.000 841.000 310.000 L 841.000 323.000 844.500 323.000 L 848.000 323.000 848.000 306.500 L 848.000 290.000 841.500 290.000 L 835.000 290.000 835.000 293.500 "/></g>
<g fill="#005952FF" stroke="#005952FF">
<path d="M 745.000 422.000 C 742.280 424.720 742.488 427.452 745.601 429.901 C 748.003 431.790 748.425 431.832 751.101 430.448 C 754.783 428.544 755.136 423.909 751.777 421.557 C 748.840 419.499 747.407 419.593 745.000 422.000 "/></g>
<g fill="#005952FF" stroke="#005952FF">
<path d="M 1099.223 421.557 C 1096.755 423.285 1096.179 428.120 1098.250 429.722 C 1100.916 431.785 1102.950 431.828 1105.436 429.872 C 1108.615 427.371 1108.691 424.998 1105.686 422.174 C 1102.930 419.586 1102.144 419.511 1099.223 421.557 "/></g>
<g fill="#005952FF" stroke="#005952FF">
<path d="M 1694.200 348.200 C 1692.517 349.883 1692.706 353.564 1694.571 355.429 C 1697.918 358.775 1704.000 356.324 1704.000 351.629 C 1704.000 348.549 1702.159 347.000 1698.500 347.000 C 1696.795 347.000 1694.860 347.540 1694.200 348.200 "/></g>
<g fill="#005952FF" stroke="#005952FF">
<path d="M 1269.980 349.037 C 1268.339 352.103 1269.564 355.852 1272.443 356.575 C 1276.064 357.484 1278.917 356.178 1279.645 353.279 C 1280.562 349.626 1278.879 347.550 1274.714 347.194 C 1271.887 346.952 1270.888 347.341 1269.980 349.037 "/></g>
<g fill="#005952FF" stroke="#005952FF">
<path d="M 1431.200 274.200 C 1430.540 274.860 1430.000 276.570 1430.000 278.000 C 1430.000 281.398 1431.711 283.000 1435.340 283.000 C 1438.376 283.000 1440.912 280.704 1440.968 277.905 C 1441.044 274.080 1433.994 271.406 1431.200 274.200 "/></g>
<g fill="#005952FF" stroke="#005952FF">
<path d="M 1102.655 348.829 C 1101.745 349.835 1101.000 351.340 1101.000 352.174 C 1101.000 354.406 1104.295 357.000 1107.129 357.000 C 1110.311 357.000 1112.000 355.266 1112.000 352.000 C 1112.000 350.570 1111.460 348.860 1110.800 348.200 C 1109.007 346.407 1104.534 346.752 1102.655 348.829 "/></g>
<g fill="#005952FF" stroke="#005952FF">
<path d="M 1007.200 274.200 C 1006.540 274.860 1006.000 276.570 1006.000 278.000 C 1006.000 281.318 1007.697 283.000 1011.045 283.000 C 1013.887 283.000 1017.000 280.295 1017.000 277.826 C 1017.000 274.051 1009.956 271.444 1007.200 274.200 "/></g>
<g fill="#005952FF" stroke="#005952FF">
<path d="M 839.571 274.571 C 836.233 277.910 839.118 283.000 844.350 283.000 C 847.896 283.000 849.854 279.169 848.182 275.500 C 846.840 272.554 842.100 272.043 839.571 274.571 "/></g>
</svg>
