<?xml version="1.0" standalone="no"?>
<!DOCTYPE svg PUBLIC "-//W3C//DTD SVG 20010904//EN"
 "http://www.w3.org/TR/2001/REC-SVG-20010904/DTD/svg10.dtd">
<svg version="1.0" xmlns="http://www.w3.org/2000/svg"
 width="1625.000000pt" height="1545.000000pt" viewBox="0 0 1625.000000 1545.000000"
 preserveAspectRatio="xMidYMid meet">

<g transform="translate(0.000000,1545.000000) scale(0.100000,-0.100000)"
fill="#000000" stroke="none">
<path d="M8107 11918 c-89 -146 -125 -194 -332 -438 -162 -191 -238 -293 -303
-407 -115 -203 -164 -388 -163 -618 0 -221 30 -355 146 -650 37 -94 85 -219
107 -280 165 -456 268 -1058 318 -1845 16 -242 26 -580 19 -580 -14 0 -84 87
-146 181 -114 175 -214 399 -463 1044 -184 476 -336 808 -479 1048 -306 512
-642 788 -1076 883 -98 22 -322 29 -439 15 -262 -33 -516 -143 -772 -334 -132
-97 -256 -206 -249 -218 4 -5 30 -9 59 -9 186 0 444 -97 650 -245 337 -240
578 -535 1132 -1385 439 -674 604 -898 853 -1154 304 -312 570 -474 894 -543
116 -25 399 -25 517 0 311 67 572 221 859 509 208 207 411 469 676 868 89 135
259 391 377 570 421 636 658 916 961 1133 205 147 467 247 647 247 84 0 85 6
17 67 -315 278 -629 442 -937 488 -390 60 -762 -46 -1071 -303 -355 -297 -611
-737 -974 -1677 -282 -730 -403 -982 -550 -1141 l-44 -49 -1 100 c0 214 35
749 71 1070 66 591 160 992 344 1460 145 367 178 502 178 725 1 207 -32 354
-119 538 -74 154 -175 293 -428 587 -95 110 -176 219 -230 308 -34 58 -35 58
-49 35z"/>
<path d="M4050 9212 c0 -25 72 -323 109 -450 250 -862 647 -1580 1102 -1993
471 -427 1000 -706 1854 -978 88 -28 166 -55 174 -60 9 -6 -3 -12 -40 -21 -72
-17 -295 -96 -455 -160 -479 -194 -892 -449 -1253 -774 -167 -150 -399 -405
-387 -425 4 -5 54 -51 113 -102 122 -105 286 -229 421 -318 l94 -61 74 117
c278 434 504 724 755 968 211 206 395 341 616 453 296 150 567 216 893 216
325 0 591 -64 891 -215 237 -118 448 -278 679 -515 242 -247 444 -512 708
-927 l62 -98 133 90 c152 104 331 242 432 334 l70 65 -45 53 c-385 465 -907
844 -1525 1107 -159 67 -453 173 -534 192 -52 12 -53 13 -30 25 13 7 94 34
179 60 843 259 1472 605 1926 1059 345 346 632 828 867 1456 98 260 222 691
252 869 l7 43 -163 -4 c-186 -6 -250 -21 -379 -90 -309 -164 -564 -475 -1115
-1358 -401 -641 -620 -937 -909 -1225 -229 -228 -416 -366 -660 -486 -163 -80
-308 -129 -480 -164 -184 -37 -343 -48 -489 -35 -645 58 -1161 370 -1679 1016
-185 230 -330 444 -643 944 -530 846 -795 1164 -1100 1317 -120 61 -185 75
-362 81 -112 3 -163 1 -163 -6z"/>
<path d="M3782 8189 c-60 -405 -53 -678 28 -988 55 -210 163 -450 287 -639
220 -333 558 -634 883 -785 92 -42 279 -107 311 -107 10 0 19 -4 19 -10 0 -5
-9 -10 -19 -10 -42 0 -390 -94 -540 -145 -133 -46 -387 -147 -399 -160 -20
-19 262 -435 400 -589 l43 -49 60 69 c181 209 386 406 590 571 120 97 476 343
496 343 25 0 2 19 -58 49 -124 60 -346 192 -487 288 -248 168 -474 362 -678
580 -331 356 -625 869 -882 1542 l-43 114 -11 -74z"/>
<path d="M12401 8132 c-191 -513 -448 -996 -713 -1336 -303 -389 -767 -764
-1270 -1026 l-128 -66 153 -100 c388 -253 705 -536 998 -888 19 -23 273 308
394 516 30 51 55 98 55 105 0 14 -46 36 -230 108 -187 73 -334 119 -544 170
-174 43 -211 55 -168 55 43 0 219 63 337 120 571 276 1029 861 1169 1492 40
182 49 289 43 506 -5 181 -31 437 -46 454 -4 4 -26 -45 -50 -110z"/>
<path d="M7986 5119 c-314 -33 -612 -164 -876 -384 -168 -140 -395 -393 -567
-630 -86 -119 -301 -438 -309 -459 -9 -23 322 -160 580 -240 210 -65 618 -159
630 -145 2 2 20 63 40 134 97 343 286 705 504 965 44 52 92 106 106 119 l26
25 36 -35 c100 -96 263 -321 369 -509 98 -174 233 -520 260 -664 5 -24 13 -36
24 -36 68 0 463 95 656 157 202 65 545 205 545 223 0 14 -243 372 -346 510
-241 324 -484 569 -713 719 -221 144 -446 223 -711 251 -107 11 -142 11 -254
-1z"/>
</g>
</svg>
